<svg xmlns="http://www.w3.org/2000/svg" width="185.625" height="16.528" viewBox="0 0 185.625 16.528">
  <g id="Group_33273" data-name="Group 33273" transform="translate(120.847 1.518)">
    <g id="Group_33272" data-name="Group 33272">
      <g id="Group_33270" data-name="Group 33270" transform="translate(19.038 1.077)">
        <path id="Path_28685" data-name="Path 28685" d="M278.917,177.588a4.238,4.238,0,0,1-2.128.575,2.807,2.807,0,0,1-3.1-3.106v-2.95h-1.412v-1.972h1.412v-2.3h2.484v2.3h2.3v1.972h-2.3v2.7c0,.809.388,1.134,1.041,1.134a2.533,2.533,0,0,0,1.133-.31Z" transform="translate(-272.272 -166.425)" fill="#fff"/>
        <path id="Path_28686" data-name="Path 28686" d="M279.219,168.416a1.437,1.437,0,0,1-2.872,0,1.436,1.436,0,0,1,2.872,0Zm-2.686,10.091v-7.794h2.484v7.794Z" transform="translate(-269.438 -167.004)" fill="#fff"/>
        <path id="Path_28687" data-name="Path 28687" d="M286.541,173.821h-5.714a1.8,1.8,0,0,0,3.337.605l2.206.451a3.874,3.874,0,0,1-3.866,2.438,4.13,4.13,0,0,1,.015-8.26,3.954,3.954,0,0,1,4.022,4.13Zm-5.668-1.521h3.215a1.56,1.56,0,0,0-1.568-1.228A1.708,1.708,0,0,0,280.873,172.3Z" transform="translate(-268.018 -165.578)" fill="#fff"/>
        <path id="Path_28688" data-name="Path 28688" d="M291.492,172.3v4.781h-2.469v-4.254a1.373,1.373,0,0,0-1.334-1.536c-.978,0-1.614.666-1.614,2.174v3.616h-2.484v-7.794h2.484v.746a3.215,3.215,0,0,1,2.391-.978A2.963,2.963,0,0,1,291.492,172.3Z" transform="translate(-264.4 -165.578)" fill="#fff"/>
        <path id="Path_28689" data-name="Path 28689" d="M297.292,178.374h-2.486v-.621a3.5,3.5,0,0,1-2.421.854,4.144,4.144,0,0,1,0-8.26,3.5,3.5,0,0,1,2.421.855V167.2h2.486Zm-2.486-3.9a1.945,1.945,0,0,0-1.909-2.019,2.024,2.024,0,0,0,0,4.037A1.934,1.934,0,0,0,294.807,174.478Z" transform="translate(-260.93 -166.87)" fill="#fff"/>
        <path id="Path_28690" data-name="Path 28690" d="M302.823,177.081h-2.484v-.621a3.509,3.509,0,0,1-2.423.854,4.144,4.144,0,0,1,0-8.26,3.509,3.509,0,0,1,2.423.855v-.622h2.484Zm-2.484-3.9a1.945,1.945,0,0,0-1.911-2.019,2.024,2.024,0,0,0,0,4.037A1.934,1.934,0,0,0,300.339,173.185Z" transform="translate(-257.083 -165.578)" fill="#fff"/>
      </g>
      <g id="Group_33271" data-name="Group 33271">
        <path id="Path_28691" data-name="Path 28691" d="M273.856,167.162a1.783,1.783,0,0,0-1.485-.793H263.99a1.783,1.783,0,0,0-1.485.793l-1.461,2.192v1.4a1.867,1.867,0,0,0,.892,1.6v8.282h12.49v-8.282a1.867,1.867,0,0,0,.892-1.6v-1.4Zm-10.609.5a.89.89,0,0,1,.743-.4h8.381a.89.89,0,0,1,.743.4l.924,1.387H262.323Zm10.283,6.394v5.7h-6.241V174.4h-3.567v5.351h-.892v-5.7h0v-1.439h0a1.775,1.775,0,0,0,1.228-.49,1.535,1.535,0,0,0,.108-.127,1.76,1.76,0,0,0,2.677,0,1.772,1.772,0,0,0,1.338.617h0a1.758,1.758,0,0,1,2.675,0,1.775,1.775,0,0,0,1.339-.617,1.535,1.535,0,0,0,.108.127,1.775,1.775,0,0,0,1.228.49h0v1.439Zm-7.133,5.7h-1.784v-4.459H266.4Zm-1.785-8.918v-.892H266.4v.892a.892.892,0,1,1-1.784,0Zm2.677,0v-.892h1.782v.892a.891.891,0,1,1-1.782,0Zm2.675,0v-.892h1.784v.892a.892.892,0,1,1-1.784,0Zm-8.03-.892h1.785v.892a.893.893,0,0,1-.941.89.945.945,0,0,1-.844-.966Zm12.49.815a.945.945,0,0,1-.844.966.893.893,0,0,1-.941-.89v-.892h1.785Z" transform="translate(-261.043 -166.369)" fill="#fff"/>
      </g>
    </g>
    <g id="Group_33274" data-name="Group 33274" transform="translate(-18.26 2.136)">
      <path id="Path_28692" data-name="Path 28692" d="M257.284,177.208a5.048,5.048,0,0,1-3,.931c-2.372,0-4.008-1.246-4.008-3.152a2.915,2.915,0,0,1,1.7-2.569,3.148,3.148,0,0,1-.705-1.982c0-1.667,1.412-2.808,3.333-2.808a3.121,3.121,0,0,1,3.349,2.853l-2.223.39c-.075-.975-.48-1.321-1.126-1.321a.919.919,0,0,0-1.021.946c0,.539.27.96,1.126,1.726l2.133,1.846a3.909,3.909,0,0,0,.09-.87v-.676H259.1v.676a5.652,5.652,0,0,1-.5,2.416l1.351,1.172-1.4,1.546Zm-1.606-1.4-2.328-2.028a1.352,1.352,0,0,0-.721,1.111c0,.766.677,1.307,1.741,1.307A2.445,2.445,0,0,0,255.678,175.813Z" transform="translate(-250.273 -167.629)" fill="#fff"/>
    </g>
    <g id="Group_33269" data-name="Group 33269" transform="translate(-120.847 -1.518)">
      <path id="Path_28673" data-name="Path 28673" d="M211.571,178.143h-2.4v-.6a3.391,3.391,0,0,1-2.338.824,4,4,0,0,1,0-7.97,3.383,3.383,0,0,1,2.338.824v-3.866h2.4Zm-2.4-3.762a1.876,1.876,0,0,0-1.843-1.946,1.952,1.952,0,0,0,0,3.894A1.867,1.867,0,0,0,209.174,174.381Z" transform="translate(-180.448 -164.165)" fill="#fff"/>
      <path id="Path_28674" data-name="Path 28674" d="M216.788,173.121a4.147,4.147,0,1,1-4.12-3.955A3.954,3.954,0,0,1,216.788,173.121Zm-2.308,0a1.839,1.839,0,1,0-1.812,1.948A1.87,1.87,0,0,0,214.48,173.121Z" transform="translate(-176.736 -162.906)" fill="#fff"/>
      <path id="Path_28675" data-name="Path 28675" d="M226.384,172.191v4.7H224v-4.2a1.276,1.276,0,0,0-1.26-1.394c-.883,0-1.467.644-1.467,1.9V176.9h-2.4v-4.2a1.278,1.278,0,0,0-1.275-1.394c-.868,0-1.438.644-1.438,1.9V176.9h-2.4v-7.523h2.4v.69a2.846,2.846,0,0,1,2.218-.914,2.787,2.787,0,0,1,2.457,1.273,3.242,3.242,0,0,1,2.667-1.273A2.865,2.865,0,0,1,226.384,172.191Z" transform="translate(-173.074 -162.917)" fill="#fff"/>
      <path id="Path_28676" data-name="Path 28676" d="M224.554,168.532a1.387,1.387,0,0,1-2.772,0,1.386,1.386,0,0,1,2.772,0Zm-2.592,9.74V170.75h2.4v7.523Z" transform="translate(-167.5 -164.294)" fill="#fff"/>
      <path id="Path_28677" data-name="Path 28677" d="M229.491,173.7l2.2.48a3.779,3.779,0,0,1-3.835,2.937,3.987,3.987,0,1,1,0-7.97,3.825,3.825,0,0,1,3.835,2.891l-2.248.539a1.55,1.55,0,0,0-1.587-1.333,1.89,1.89,0,0,0,0,3.776A1.614,1.614,0,0,0,229.491,173.7Z" transform="translate(-166.13 -162.917)" fill="#fff"/>
      <path id="Path_28678" data-name="Path 28678" d="M231.552,168.532a1.324,1.324,0,0,1-1.394,1.334,1.311,1.311,0,0,1-1.378-1.334,1.352,1.352,0,0,1,1.378-1.363A1.366,1.366,0,0,1,231.552,168.532Zm-2.592,9.74V170.75h2.4v7.523Z" transform="translate(-162.634 -164.294)" fill="#fff"/>
      <path id="Path_28679" data-name="Path 28679" d="M231.042,178.143V167.355h2.4v10.788Z" transform="translate(-161.06 -164.165)" fill="#fff"/>
      <path id="Path_28680" data-name="Path 28680" d="M235.863,168.532a1.387,1.387,0,0,1-2.772,0,1.386,1.386,0,0,1,2.772,0Zm-2.592,9.74V170.75h2.4v7.523Z" transform="translate(-159.635 -164.294)" fill="#fff"/>
      <path id="Path_28681" data-name="Path 28681" d="M243.348,173.121a4.147,4.147,0,1,1-4.12-3.955A3.955,3.955,0,0,1,243.348,173.121Zm-2.308,0a1.839,1.839,0,1,0-1.812,1.948A1.87,1.87,0,0,0,241.04,173.121Z" transform="translate(-158.265 -162.906)" fill="#fff"/>
      <path id="Path_28682" data-name="Path 28682" d="M242.365,174.452c.105.644.688.885,1.334.885.629,0,.973-.271.973-.6,0-.254-.195-.449-.749-.554l-1.528-.3c-1.394-.254-2.187-1-2.187-2.187,0-1.543,1.333-2.547,3.235-2.547,1.873,0,3.116.853,3.416,2.157l-2.187.434a1.167,1.167,0,0,0-1.258-.883c-.644,0-.855.315-.855.585,0,.209.09.419.57.524l1.767.359a2.265,2.265,0,0,1,2.084,2.263c0,1.663-1.439,2.531-3.416,2.531-1.768,0-3.281-.644-3.537-2.187Z" transform="translate(-154.812 -162.917)" fill="#fff"/>
      <path id="Path_28683" data-name="Path 28683" d="M191.539,172.861a5.028,5.028,0,0,1-.546-.059,1.514,1.514,0,0,1-1.2-1.37,11.273,11.273,0,0,1,.032-1.868,2.868,2.868,0,0,1,.814-1.534,6.222,6.222,0,0,1,3.189-1.9,18.383,18.383,0,0,1,10.8.32,6.174,6.174,0,0,1,2.318,1.414,3.506,3.506,0,0,1,1.2,3.135c-.032.241,0,.492-.037.731a1.549,1.549,0,0,1-1.472,1.382l-.31.031c.134,1.056.266,2.1.4,3.148.112.887.276,1.772.324,2.662a2.918,2.918,0,0,1-1.982,2.848,3.59,3.59,0,0,1-1.219.2c-3.364-.031-6.728-.083-10.091-.132a3.035,3.035,0,0,1-3.12-3.04,9.484,9.484,0,0,1,.229-1.66Q191.2,175.015,191.539,172.861Zm4.927-2.982c0,.231,0,.446-.008.66a1.548,1.548,0,0,1-1.326,1.636c-.537.124-1.075.242-1.617.329-.239.037-.309.142-.341.359-.246,1.606-.5,3.211-.755,4.818a8.156,8.156,0,0,0-.168,1.205,1.412,1.412,0,0,0,1.417,1.356q2.373.038,4.747.068c1.845.027,3.689.044,5.534.081a1.454,1.454,0,0,0,1.473-1.59c-.273-1.94-.505-3.888-.749-5.832-.02-.153-.095-.205-.239-.237-.607-.142-1.214-.283-1.812-.453a1.47,1.47,0,0,1-1.148-1.38,4.617,4.617,0,0,1,.007-.649c.01-.2-.044-.312-.273-.336-.512-.054-1.019-.151-1.531-.2A12.657,12.657,0,0,0,196.466,169.879Zm-1.631.724c0-.249,0-.466.012-.682a1.566,1.566,0,0,1,1.4-1.631,14.078,14.078,0,0,1,5.592.124,1.531,1.531,0,0,1,1.256,1.606c.005.234-.08.541.037.68.127.154.437.164.671.219.887.209,1.773.409,2.708.624.007-.41-.007-.77.02-1.127a1.3,1.3,0,0,0-.275-.882,4.264,4.264,0,0,0-2.213-1.575,16.922,16.922,0,0,0-9.135-.436,6.448,6.448,0,0,0-2.635,1.138,2.481,2.481,0,0,0-.838,2.592Z" transform="translate(-189.766 -165.474)" fill="#fff"/>
      <path id="Path_28684" data-name="Path 28684" d="M196.659,176.824a3.859,3.859,0,1,1,3.939-3.774A3.834,3.834,0,0,1,196.659,176.824Zm-2.174-3.845a2.246,2.246,0,1,0,2.145-2.247A2.246,2.246,0,0,0,194.486,172.979Z" transform="translate(-187.609 -162.946)" fill="#fff"/>
    </g>
  </g>
</svg>
