<svg xmlns="http://www.w3.org/2000/svg" width="44.014" height="18.703" viewBox="0 0 44.014 18.703">
  <g id="Group_33268" data-name="Group 33268" transform="translate(0 0)">
    <path id="Path_28667" data-name="Path 28667" d="M131.452,176.764h-2.4v-.6a3.391,3.391,0,0,1-2.338.824,4,4,0,0,1,0-7.972,3.391,3.391,0,0,1,2.338.824v-.6h2.4Zm-2.4-3.761a1.876,1.876,0,0,0-1.843-1.948,1.953,1.953,0,0,0,0,3.9A1.867,1.867,0,0,0,129.055,173Z" transform="translate(-106.029 -163.266)" fill="#fff"/>
    <path id="Path_28668" data-name="Path 28668" d="M137.079,173a3.748,3.748,0,0,1-3.671,3.986,3.386,3.386,0,0,1-2.336-.824v3.147h-2.4V169.242h2.4v.6a3.386,3.386,0,0,1,2.336-.824A3.757,3.757,0,0,1,137.079,173Zm-2.352,0a1.81,1.81,0,0,0-1.812-1.948,1.951,1.951,0,0,0,0,3.9A1.8,1.8,0,0,0,134.728,173Z" transform="translate(-102.114 -163.266)" fill="#fff"/>
    <path id="Path_28669" data-name="Path 28669" d="M142.416,173a3.748,3.748,0,0,1-3.671,3.986,3.386,3.386,0,0,1-2.336-.824v3.147h-2.4V169.242h2.4v.6a3.386,3.386,0,0,1,2.336-.824A3.757,3.757,0,0,1,142.416,173Zm-2.352,0a1.81,1.81,0,0,0-1.812-1.948,1.951,1.951,0,0,0,0,3.9A1.8,1.8,0,0,0,140.065,173Z" transform="translate(-98.402 -163.266)" fill="#fff"/>
    <path id="Path_28670" data-name="Path 28670" d="M117.107,172.925a.738.738,0,1,1,.746-.738A.742.742,0,0,1,117.107,172.925Z" transform="translate(-110.678 -161.574)" fill="#fff"/>
    <path id="Path_28671" data-name="Path 28671" d="M117.716,172.9s0,.051-.046.051h-1.078c-.041,0-.046-.049-.046-.049l-.219-3.869s-.008-.037.046-.037H117.9c.041,0,.039.044.039.044Z" transform="translate(-110.702 -163.28)" fill="#fff"/>
    <path id="Path_28672" data-name="Path 28672" d="M123.821,165.625h-8.766a2.014,2.014,0,0,0-2.046,1.974v14.757a2.013,2.013,0,0,0,2.046,1.972h8.766a2.012,2.012,0,0,0,2.046-1.972V167.6A2.013,2.013,0,0,0,123.821,165.625Zm-9.642,3.508H124.7v10.052H114.179Zm.877-2.338h8.766a.844.844,0,0,1,.877.8v.365H114.179V167.6A.844.844,0,0,1,115.055,166.795Zm8.766,16.363h-8.766a.843.843,0,0,1-.877-.8v-2H124.7v2A.843.843,0,0,1,123.821,183.158Z" transform="translate(-113.009 -165.625)" fill="#fff"/>
    <circle id="Ellipse_142" data-name="Ellipse 142" cx="0.912" cy="0.912" r="0.912" transform="translate(5.518 15.202)" fill="#fff"/>
  </g>
</svg>
