<svg id="Group_33278" data-name="Group 33278" xmlns="http://www.w3.org/2000/svg" width="83.522" height="27.536" viewBox="0 0 83.522 27.536">
  <g id="Group_33276" data-name="Group 33276">
    <path id="Path_28693" data-name="Path 28693" d="M34.87,169.438a2.528,2.528,0,0,0-2.109-1.129H24.4c-.005-.078-.007-.154-.015-.232a5.713,5.713,0,0,0-11.4.512,6.25,6.25,0,0,0,.392,2.111,28.57,28.57,0,0,0,3.05,5.965c.519.809,1.07,1.6,1.616,2.386h0l-.115-.168v9.707H35.681v-11.77a2.658,2.658,0,0,0,1.267-2.28v-1.985Zm-10.546.137v0h8.437a1.264,1.264,0,0,1,1.055.563l1.314,1.972H23.47c.1-.234.2-.468.3-.705A9.3,9.3,0,0,0,24.324,169.575Zm7.553,3.8v1.268a1.267,1.267,0,0,1-2.535,0v-1.268Zm-3.8,0v1.268a1.267,1.267,0,0,1-2.535,0v-1.268Zm-3.8,0v1.268a1.266,1.266,0,0,1-2.409.546c.353-.593.688-1.2,1-1.814h1.407Zm-1.121-.578.066-.142Zm-8.416-2.062a4.985,4.985,0,0,1-.307-3.347,4.494,4.494,0,0,1,4.988-3.113,4.43,4.43,0,0,1,3.716,4.676,8.779,8.779,0,0,1-.977,2.982,41.15,41.15,0,0,1-3.338,5.629l-.115.166c-.225-.322-.415-.576-.59-.843A32.774,32.774,0,0,1,14.737,170.738Zm3.442,8.47.014.015Zm.444.263h0Zm-.3-.132.017.014Zm.149.088.015.007Zm5.8,7.892H21.737v-6.336h2.536Zm1.267,0v-7.6H20.471v7.6H19.2V179.2a1.338,1.338,0,0,0,.109-.137c.292-.422.592-.841.882-1.267.326-.476.646-.958.956-1.445h0a2.494,2.494,0,0,0,3.757-.046,2.5,2.5,0,0,0,3.8,0,2.5,2.5,0,0,0,3.8,0c.053.059.1.125.156.18a2.509,2.509,0,0,0,1.743.7h0V187.32Zm10.141-12.782a1.341,1.341,0,0,1-1.2,1.373,1.264,1.264,0,0,1-1.336-1.265v-1.268h2.535Z" transform="translate(-12.99 -162.944)" fill="#fff"/>
    <path id="Path_28694" data-name="Path 28694" d="M17.092,169.832a.862.862,0,0,0,.353.076h0a.833.833,0,0,0,.622-.271c.032-.037.07-.071.105-.107l1.317-1.407a1.826,1.826,0,0,0,.366-.434,1.659,1.659,0,0,0,.19-1.253,1.561,1.561,0,0,0-1.407-1.219,1.466,1.466,0,0,0-1.127.41l-.066.063a1.531,1.531,0,0,0-.882-.459,1.482,1.482,0,0,0-.855.124,1.534,1.534,0,0,0-.722.7,1.646,1.646,0,0,0-.163,1.07,1.665,1.665,0,0,0,.437.86q.448.473.892.946l.649.688A.886.886,0,0,0,17.092,169.832Z" transform="translate(-11.732 -161.365)" fill="#fff"/>
    <path id="Path_28695" data-name="Path 28695" d="M21.14,177.905h6.338v-5.069H21.14Zm1.267-3.8h3.8v2.535h-3.8Z" transform="translate(-7.321 -156.065)" fill="#fff"/>
  </g>
  <g id="Group_33277" data-name="Group 33277" transform="translate(28.462 6.388)">
    <path id="Path_28696" data-name="Path 28696" d="M35.043,170.893l2.021.439a3.229,3.229,0,0,1-1.238,1.953,3.659,3.659,0,0,1-2.282.743A3.762,3.762,0,0,1,30.871,173a3.709,3.709,0,0,1,0-5.259,3.748,3.748,0,0,1,2.674-1.033,3.674,3.674,0,0,1,2.255.729,3.291,3.291,0,0,1,1.265,1.926l-2.062.5a1.58,1.58,0,0,0-.522-.916,1.457,1.457,0,0,0-.936-.309,1.553,1.553,0,0,0-1.2.488,1.941,1.941,0,0,0,0,2.5,1.566,1.566,0,0,0,1.2.482A1.459,1.459,0,0,0,35.043,170.893Z" transform="translate(-29.777 -166.712)" fill="#fff"/>
    <path id="Path_28697" data-name="Path 28697" d="M40.661,167.747a3.668,3.668,0,0,1,0,5.239A3.808,3.808,0,0,1,37.979,174a3.863,3.863,0,0,1-2.714-1.017,3.652,3.652,0,0,1,0-5.239,3.864,3.864,0,0,1,2.714-1.019A3.809,3.809,0,0,1,40.661,167.747Zm-1.512,3.9a1.908,1.908,0,0,0-.007-2.572,1.6,1.6,0,0,0-1.163-.5,1.647,1.647,0,0,0-1.2.5,1.889,1.889,0,0,0-.007,2.572,1.642,1.642,0,0,0,1.2.5A1.593,1.593,0,0,0,39.148,171.645Z" transform="translate(-26.731 -166.701)" fill="#fff"/>
    <path id="Path_28698" data-name="Path 28698" d="M49.813,167.49a2.766,2.766,0,0,1,.756,2.014v4.317H48.382v-3.85a1.3,1.3,0,0,0-.331-.927,1.083,1.083,0,0,0-.824-.351,1.2,1.2,0,0,0-.983.448,2.016,2.016,0,0,0-.365,1.3v3.382h-2.2v-3.85a1.3,1.3,0,0,0-.329-.927,1.1,1.1,0,0,0-.839-.351,1.165,1.165,0,0,0-.97.448,2.069,2.069,0,0,0-.351,1.3v3.382h-2.2v-6.9h2.2v.632a2.607,2.607,0,0,1,2.036-.839,2.47,2.47,0,0,1,2.255,1.17,2.91,2.91,0,0,1,2.447-1.17A2.523,2.523,0,0,1,49.813,167.49Z" transform="translate(-23.369 -166.712)" fill="#fff"/>
    <path id="Path_28699" data-name="Path 28699" d="M53.11,167.745a4.008,4.008,0,0,1,0,5.259,3.179,3.179,0,0,1-2.386,1.024,3.086,3.086,0,0,1-2.145-.756v2.887h-2.2v-9.24h2.2v.549a3.086,3.086,0,0,1,2.145-.756A3.169,3.169,0,0,1,53.11,167.745Zm-1.643,3.918a2.01,2.01,0,0,0,0-2.579,1.563,1.563,0,0,0-1.2-.5,1.612,1.612,0,0,0-1.19.507,1.89,1.89,0,0,0,0,2.565,1.627,1.627,0,0,0,1.19.5A1.571,1.571,0,0,0,51.467,171.663Z" transform="translate(-18.231 -166.712)" fill="#fff"/>
    <path id="Path_28700" data-name="Path 28700" d="M56.352,166.833l-.1,2.2h-.4q-2.378,0-2.379,2.586v2.158h-2.2v-6.9h2.2v1.321a2.648,2.648,0,0,1,2.379-1.417A2.007,2.007,0,0,1,56.352,166.833Z" transform="translate(-14.824 -166.667)" fill="#fff"/>
    <path id="Path_28701" data-name="Path 28701" d="M61.945,173.821h-2.2v-.549a3.086,3.086,0,0,1-2.145.756A3.179,3.179,0,0,1,55.214,173a4.008,4.008,0,0,1,0-5.259,3.169,3.169,0,0,1,2.386-1.033,3.086,3.086,0,0,1,2.145.756v-.549h2.2Zm-2.7-2.165a1.89,1.89,0,0,0,0-2.565,1.615,1.615,0,0,0-1.19-.507,1.563,1.563,0,0,0-1.2.5,2.01,2.01,0,0,0,0,2.579,1.571,1.571,0,0,0,1.2.5A1.63,1.63,0,0,0,59.243,171.656Z" transform="translate(-12.77 -166.712)" fill="#fff"/>
    <path id="Path_28702" data-name="Path 28702" d="M36.32,180.861a4.505,4.505,0,0,1-2.75.853,4.2,4.2,0,0,1-2.653-.792,2.522,2.522,0,0,1-1.017-2.1,2.6,2.6,0,0,1,1.553-2.35,2.957,2.957,0,0,1-.646-1.816,2.3,2.3,0,0,1,.86-1.857,3.314,3.314,0,0,1,2.192-.714,2.989,2.989,0,0,1,2.118.714,3.133,3.133,0,0,1,.949,1.9l-2.035.358q-.1-1.211-1.033-1.209a.984.984,0,0,0-.673.227.8.8,0,0,0-.261.637,1.3,1.3,0,0,0,.22.716,4.55,4.55,0,0,0,.81.866l1.953,1.692a3.615,3.615,0,0,0,.081-.8v-.617h2v.617a5.2,5.2,0,0,1-.454,2.214l1.238,1.073-1.278,1.416Zm-1.472-1.278-2.131-1.857a1.193,1.193,0,0,0-.66,1.017,1.039,1.039,0,0,0,.432.866,1.872,1.872,0,0,0,1.163.331A2.157,2.157,0,0,0,34.848,179.583Z" transform="translate(-29.692 -162.973)" fill="#fff"/>
    <path id="Path_28703" data-name="Path 28703" d="M42.012,173.57l-.095,2.2h-.4q-2.38,0-2.38,2.586v2.158h-2.2v-6.9h2.2v1.319a2.649,2.649,0,0,1,2.38-1.416A2.082,2.082,0,0,1,42.012,173.57Z" transform="translate(-24.796 -161.98)" fill="#fff"/>
    <path id="Path_28704" data-name="Path 28704" d="M47.11,177.673H42.049a1.793,1.793,0,0,0,.537.977,1.374,1.374,0,0,0,.948.358,1.545,1.545,0,0,0,1.472-.8l1.953.4a3.283,3.283,0,0,1-1.328,1.616,3.932,3.932,0,0,1-2.1.544,3.587,3.587,0,0,1-2.586-1.024,3.8,3.8,0,0,1,0-5.261,3.589,3.589,0,0,1,2.6-1.031,3.444,3.444,0,0,1,2.518,1,3.655,3.655,0,0,1,1.044,2.653Zm-4.456-2.145a1.436,1.436,0,0,0-.563.8h2.845a1.455,1.455,0,0,0-.522-.81,1.407,1.407,0,0,0-.866-.276A1.522,1.522,0,0,0,42.655,175.528Z" transform="translate(-22.743 -162.025)" fill="#fff"/>
    <path id="Path_28705" data-name="Path 28705" d="M49.5,177.632l2.023.439a3.237,3.237,0,0,1-1.238,1.953,3.667,3.667,0,0,1-2.284.743,3.773,3.773,0,0,1-2.674-1.024,3.71,3.71,0,0,1,0-5.261A3.756,3.756,0,0,1,48,173.451a3.668,3.668,0,0,1,2.257.729,3.3,3.3,0,0,1,1.265,1.924l-2.063.5a1.57,1.57,0,0,0-.522-.914,1.445,1.445,0,0,0-.936-.31,1.555,1.555,0,0,0-1.2.488,1.941,1.941,0,0,0,0,2.5,1.562,1.562,0,0,0,1.2.482A1.458,1.458,0,0,0,49.5,177.632Z" transform="translate(-19.726 -162.025)" fill="#fff"/>
    <path id="Path_28706" data-name="Path 28706" d="M55.114,174.484a3.67,3.67,0,0,1,0,5.241,3.814,3.814,0,0,1-2.681,1.017,3.872,3.872,0,0,1-2.716-1.017,3.654,3.654,0,0,1,0-5.241,3.865,3.865,0,0,1,2.716-1.017A3.807,3.807,0,0,1,55.114,174.484Zm-1.512,3.9a1.908,1.908,0,0,0-.007-2.572,1.6,1.6,0,0,0-1.161-.5,1.65,1.65,0,0,0-1.2.5,1.727,1.727,0,0,0-.509,1.285,1.745,1.745,0,0,0,.5,1.287,1.643,1.643,0,0,0,1.2.5A1.592,1.592,0,0,0,53.6,178.384Z" transform="translate(-16.679 -162.014)" fill="#fff"/>
    <path id="Path_28707" data-name="Path 28707" d="M60.739,179.873a2.965,2.965,0,0,1-1.066,2.426,4.277,4.277,0,0,1-2.8.873,3.717,3.717,0,0,1-3.466-1.663l1.829-.99a2.658,2.658,0,0,0,.749.666,1.849,1.849,0,0,0,.873.186,1.759,1.759,0,0,0,1.244-.441,1.607,1.607,0,0,0,.475-1.238V179.5a3.089,3.089,0,0,1-2.077.66,3.218,3.218,0,0,1-2.352-.97,3.261,3.261,0,0,1-.977-2.413,3.183,3.183,0,0,1,.977-2.372,3.239,3.239,0,0,1,2.352-.956,3.089,3.089,0,0,1,2.077.66v-.453h2.158Zm-2.626-1.96a1.5,1.5,0,0,0,.468-1.134,1.483,1.483,0,0,0-.468-1.121,1.588,1.588,0,0,0-1.141-.448,1.652,1.652,0,0,0-1.19.441,1.613,1.613,0,0,0,.007,2.262,1.643,1.643,0,0,0,1.183.446A1.587,1.587,0,0,0,58.113,177.913Z" transform="translate(-13.504 -162.025)" fill="#fff"/>
    <path id="Path_28708" data-name="Path 28708" d="M65.213,177.673H60.152a1.793,1.793,0,0,0,.537.977,1.374,1.374,0,0,0,.948.358,1.545,1.545,0,0,0,1.472-.8l1.953.4a3.283,3.283,0,0,1-1.328,1.616,3.932,3.932,0,0,1-2.1.544,3.587,3.587,0,0,1-2.586-1.024,3.8,3.8,0,0,1,0-5.261,3.589,3.589,0,0,1,2.6-1.031,3.441,3.441,0,0,1,2.518,1,3.655,3.655,0,0,1,1.044,2.653Zm-4.456-2.145a1.436,1.436,0,0,0-.563.8h2.847a1.466,1.466,0,0,0-.524-.81,1.407,1.407,0,0,0-.866-.276A1.522,1.522,0,0,0,60.758,175.528Z" transform="translate(-10.153 -162.025)" fill="#fff"/>
  </g>
</svg>
