<svg xmlns="http://www.w3.org/2000/svg" width="238.713" height="18.289" viewBox="0 0 238.713 18.289">
  <g id="Group_33247" data-name="Group 33247" transform="translate(-9.607 -4.73)">
    <g id="Group_33241" data-name="Group 33241" transform="translate(65.212 6.766)">
      <g id="Group_33239" data-name="Group 33239">
        <path id="Path_28545" data-name="Path 28545" d="M557.039,605.2a5.125,5.125,0,0,0-.831-1.787,4.225,4.225,0,0,0-1.48-1.259,4.535,4.535,0,0,0-2.108-.469,4.921,4.921,0,0,0-1.962.383,4.581,4.581,0,0,0-2.516,2.638,5.482,5.482,0,0,0-.345,1.963,5.7,5.7,0,0,0,.335,2,4.578,4.578,0,0,0,.961,1.576,4.205,4.205,0,0,0,1.527,1.021,5.374,5.374,0,0,0,2,.357,4.934,4.934,0,0,0,2.737-.733,3.579,3.579,0,0,0,1-.988,5.4,5.4,0,0,0,.691-1.446l.064-.193s.034-.086-.071-.086H554.62c-.126,0-.139.073-.139.073l-.023.08a.875.875,0,0,1-.185.327,1.92,1.92,0,0,1-.392.344,2.017,2.017,0,0,1-1.173.333,2.6,2.6,0,0,1-.855-.125,1.51,1.51,0,0,1-.6-.354,1.556,1.556,0,0,1-.38-.625,3.109,3.109,0,0,1-.152-.753h6.387c.1,0,.106-.116.106-.116l0-.084c.01-.158.015-.318.015-.475a6.483,6.483,0,0,0-.195-1.6m-5.935-.6a1.65,1.65,0,0,1,.557-.44,1.924,1.924,0,0,1,.891-.178,2.107,2.107,0,0,1,.719.11,1.165,1.165,0,0,1,.474.309,2.436,2.436,0,0,1,.512,1.069h-3.523a3.009,3.009,0,0,1,.076-.317,1.6,1.6,0,0,1,.294-.553" transform="translate(-547.798 -599.199)"/>
        <path id="Path_28546" data-name="Path 28546" d="M575.346,611.551l-3.429-4.938,3.1-4.409s.041-.055-.069-.055h-3.133c-.1,0-.126.057-.126.057l-1.406,2.109-1.416-2.1a.192.192,0,0,0-.15-.067h-3.22c-.093,0-.045.063-.045.063l.216.313,2.874,4.142-3.347,4.895s-.062.093.049.093h3.141a.2.2,0,0,0,.176-.107L570.246,609l1.686,2.543a.233.233,0,0,0,.177.109H575.3c.12,0,.05-.1.05-.1" transform="translate(-556.861 -599.438)"/>
        <path id="Path_28547" data-name="Path 28547" d="M590.659,602.143h-3.617c-.126,0-.107.087-.107.087l.521,9.3s.01.116.108.116h2.559c.108,0,.108-.119.108-.119l.521-9.285s0-.1-.093-.1" transform="translate(-568.209 -599.435)"/>
        <path id="Path_28548" data-name="Path 28548" d="M602.373,601.328a.107.107,0,0,0,.1-.115v-1.925a.091.091,0,0,0-.1-.094h-1.715v-2.6a.1.1,0,0,0-.1-.107H597.8a.094.094,0,0,0-.1.1v2.606h-1.391c-.126,0-.112.084-.112.084v1.943a.092.092,0,0,0,.094.107H597.7v5.087a2.52,2.52,0,0,0,.256,1.211,1.854,1.854,0,0,0,.709.74,2.81,2.81,0,0,0,.991.335,7.605,7.605,0,0,0,1.128.08c.248,0,.5,0,.761-.017a6.126,6.126,0,0,0,.726-.069l.107-.018s.094,0,.094-.122V606.34c0-.117-.1-.078-.1-.078l-.188.036a3.266,3.266,0,0,1-.342.05c-.121.012-.247.017-.38.017a2.079,2.079,0,0,1-.466-.045.47.47,0,0,1-.2-.093.43.43,0,0,1-.093-.2,1.9,1.9,0,0,1-.046-.465v-4.228Z" transform="translate(-573.039 -596.484)"/>
        <path id="Path_28549" data-name="Path 28549" d="M619.145,604.6a4.363,4.363,0,0,0-2.555-2.6,5.857,5.857,0,0,0-4.027,0,4.383,4.383,0,0,0-2.544,2.6,5.781,5.781,0,0,0-.347,2.048,5.707,5.707,0,0,0,.347,2.041,4.444,4.444,0,0,0,1,1.576,4.334,4.334,0,0,0,1.55,1.008,5.5,5.5,0,0,0,2.008.347,5.556,5.556,0,0,0,2.015-.347,4.33,4.33,0,0,0,1.56-1.008,4.431,4.431,0,0,0,1-1.576,5.718,5.718,0,0,0,.348-2.041,5.792,5.792,0,0,0-.348-2.048m-3.633,4.474a1.867,1.867,0,0,1-.939.212,1.815,1.815,0,0,1-.929-.211,1.676,1.676,0,0,1-.591-.575,2.6,2.6,0,0,1-.326-.846,5.06,5.06,0,0,1-.1-1.009,5.217,5.217,0,0,1,.1-1.019,2.5,2.5,0,0,1,.326-.844,1.824,1.824,0,0,1,.595-.578,1.767,1.767,0,0,1,.925-.218,1.813,1.813,0,0,1,.935.219,1.749,1.749,0,0,1,.6.577,2.462,2.462,0,0,1,.326.844,5.116,5.116,0,0,1,.1,1.019,4.963,4.963,0,0,1-.1,1.009,2.562,2.562,0,0,1-.326.846,1.63,1.63,0,0,1-.6.574" transform="translate(-580.068 -599.172)"/>
        <path id="Path_28550" data-name="Path 28550" d="M590.764,624.818a1.772,1.772,0,1,0-1.772,1.771,1.773,1.773,0,0,0,1.772-1.771" transform="translate(-568.359 -610.336)" fill="#d63935"/>
        <g id="Group_33238" data-name="Group 33238" transform="translate(39.787 2.464)">
          <path id="Path_28551" data-name="Path 28551" d="M633.874,615.456a1.688,1.688,0,0,1,.01,2.377,1.794,1.794,0,0,1-2.443.009,1.614,1.614,0,0,1-.485-1.2,1.671,1.671,0,0,1,1.7-1.678A1.658,1.658,0,0,1,633.874,615.456Z" transform="translate(-630.956 -608.585)" fill="#0091ba"/>
          <path id="Path_28552" data-name="Path 28552" d="M645.612,607.3l2.741.6a4.385,4.385,0,0,1-1.678,2.648,4.969,4.969,0,0,1-3.1,1.007,5.106,5.106,0,0,1-3.627-1.389,5.03,5.03,0,0,1,0-7.132,5.086,5.086,0,0,1,3.627-1.4,4.975,4.975,0,0,1,3.058.988,4.469,4.469,0,0,1,1.716,2.61l-2.8.671a2.134,2.134,0,0,0-.709-1.24,1.96,1.96,0,0,0-1.268-.42,2.112,2.112,0,0,0-1.622.662,2.635,2.635,0,0,0,0,3.385,2.127,2.127,0,0,0,1.622.653A1.979,1.979,0,0,0,645.612,607.3Z" transform="translate(-634.875 -601.634)" fill="#0091ba"/>
          <path id="Path_28553" data-name="Path 28553" d="M668.334,603.092a4.976,4.976,0,0,1,0,7.1,5.161,5.161,0,0,1-3.636,1.38,5.242,5.242,0,0,1-3.683-1.38,4.953,4.953,0,0,1,0-7.1,5.24,5.24,0,0,1,3.683-1.38A5.159,5.159,0,0,1,668.334,603.092Zm-2.051,5.286a2.586,2.586,0,0,0-.01-3.487,2.163,2.163,0,0,0-1.576-.68,2.235,2.235,0,0,0-1.622.68,2.561,2.561,0,0,0-.01,3.487,2.224,2.224,0,0,0,1.632.68A2.155,2.155,0,0,0,666.283,608.378Z" transform="translate(-645.85 -601.675)" fill="#0091ba"/>
          <path id="Path_28554" data-name="Path 28554" d="M696.635,602.688a3.751,3.751,0,0,1,1.026,2.731v5.855H694.7v-5.221a1.762,1.762,0,0,0-.447-1.259,1.473,1.473,0,0,0-1.119-.475,1.632,1.632,0,0,0-1.333.606,2.733,2.733,0,0,0-.494,1.762v4.587h-2.984v-5.221a1.764,1.764,0,0,0-.447-1.259,1.5,1.5,0,0,0-1.138-.475,1.578,1.578,0,0,0-1.314.606,2.81,2.81,0,0,0-.476,1.762v4.587h-2.983v-9.361h2.983v.858a3.532,3.532,0,0,1,2.76-1.137,3.349,3.349,0,0,1,3.058,1.585,3.951,3.951,0,0,1,3.319-1.585A3.419,3.419,0,0,1,696.635,602.688Z" transform="translate(-657.557 -601.634)" fill="#0091ba"/>
        </g>
      </g>
      <g id="Group_33240" data-name="Group 33240" transform="translate(88.602 3.075)">
        <path id="Path_28555" data-name="Path 28555" d="M738.874,610.96a4.241,4.241,0,0,1-2.523.782c-1.993,0-3.368-1.047-3.368-2.65a2.45,2.45,0,0,1,1.425-2.157,2.643,2.643,0,0,1-.593-1.665c0-1.4,1.186-2.359,2.8-2.359a2.62,2.62,0,0,1,2.813,2.4l-1.867.328c-.063-.82-.4-1.11-.946-1.11a.773.773,0,0,0-.858.795c0,.454.227.808.946,1.451l1.791,1.552a3.249,3.249,0,0,0,.076-.732v-.567H740.4v.567a4.736,4.736,0,0,1-.416,2.032l1.135.984-1.174,1.3Zm-1.35-1.173-1.955-1.7a1.136,1.136,0,0,0-.606.933c0,.644.567,1.1,1.464,1.1A2.048,2.048,0,0,0,737.523,609.787Z" transform="translate(-732.982 -602.911)"/>
      </g>
    </g>
    <g id="Group_33242" data-name="Group 33242" transform="translate(192.079 4.73)">
      <path id="Path_28556" data-name="Path 28556" d="M821.127,607.848a5.2,5.2,0,0,1-2.616.707,3.452,3.452,0,0,1-3.818-3.818V601.11h-1.737v-2.425h1.737v-2.825h3.054v2.825h2.825v2.425h-2.825v3.321c0,.993.477,1.394,1.279,1.394a3.116,3.116,0,0,0,1.394-.382Z" transform="translate(-812.956 -594.122)"/>
      <path id="Path_28557" data-name="Path 28557" d="M834.243,593.966a1.767,1.767,0,0,1-3.532,0,1.766,1.766,0,0,1,3.532,0Zm-3.3,12.409v-9.583h3.054v9.583Z" transform="translate(-822.216 -592.229)"/>
      <path id="Path_28558" data-name="Path 28558" d="M849.632,607.027h-7.025a2.214,2.214,0,0,0,4.1.745l2.711.554a4.765,4.765,0,0,1-4.753,3,5.078,5.078,0,0,1,.019-10.156,4.86,4.86,0,0,1,4.944,5.078Zm-6.968-1.871h3.952a1.915,1.915,0,0,0-1.928-1.508A2.1,2.1,0,0,0,842.664,605.156Z" transform="translate(-826.857 -596.891)"/>
      <path id="Path_28559" data-name="Path 28559" d="M871.99,605.156v5.88h-3.035v-5.23a1.69,1.69,0,0,0-1.641-1.89c-1.2,0-1.986.821-1.986,2.672v4.448h-3.055v-9.583h3.055v.917a3.949,3.949,0,0,1,2.94-1.2C870.5,601.167,871.99,602.751,871.99,605.156Z" transform="translate(-838.677 -596.891)"/>
      <path id="Path_28560" data-name="Path 28560" d="M894.729,606.812h-3.055v-.764A4.312,4.312,0,0,1,888.7,607.1a5.095,5.095,0,0,1,0-10.156,4.316,4.316,0,0,1,2.978,1.05v-4.925h3.055Zm-3.055-4.791a2.39,2.39,0,0,0-2.348-2.482,2.488,2.488,0,0,0,0,4.964A2.378,2.378,0,0,0,891.674,602.02Z" transform="translate(-850.018 -592.666)"/>
      <path id="Path_28561" data-name="Path 28561" d="M918.829,611.036h-3.055v-.764a4.312,4.312,0,0,1-2.978,1.051,5.1,5.1,0,0,1,0-10.156,4.316,4.316,0,0,1,2.978,1.05v-.764h3.055Zm-3.055-4.791a2.39,2.39,0,0,0-2.348-2.482,2.488,2.488,0,0,0,0,4.964A2.378,2.378,0,0,0,915.774,606.245Z" transform="translate(-862.588 -596.891)"/>
    </g>
    <g id="Group_33243" data-name="Group 33243" transform="translate(170.598 4.79)">
      <path id="Path_28562" data-name="Path 28562" d="M783.4,593.306a2.132,2.132,0,0,0-1.778-.951H771.588a2.13,2.13,0,0,0-1.777.951l-1.75,2.625V597.6a2.236,2.236,0,0,0,1.068,1.921v9.918h14.955v-9.918a2.235,2.235,0,0,0,1.068-1.921v-1.673Zm-12.7.592a1.067,1.067,0,0,1,.888-.476h10.036a1.066,1.066,0,0,1,.888.476l1.107,1.661H769.593Zm12.313,7.655v6.821H775.54v-6.408h-4.272v6.408H770.2v-6.821h0v-1.723h0a2.119,2.119,0,0,0,1.469-.587c.049-.046.087-.1.131-.152a5.819,5.819,0,0,1,4.807.739h0a2.108,2.108,0,0,1,3.2,0,2.124,2.124,0,0,0,1.6-.739,1.945,1.945,0,0,0,.131.152,2.117,2.117,0,0,0,1.469.587h0v1.723Zm-8.541,6.821h-2.136v-5.34h2.136Zm-2.139-10.68v-1.068h2.136V597.7a1.068,1.068,0,0,1-2.136,0Zm3.207,0v-1.068h2.133V597.7a1.067,1.067,0,1,1-2.133,0Zm3.2,0v-1.068h2.136V597.7a1.068,1.068,0,0,1-2.136,0Zm-9.615-1.068h2.136V597.7a1.069,1.069,0,0,1-1.127,1.066,1.131,1.131,0,0,1-1.01-1.157Zm14.955.977a1.131,1.131,0,0,1-1.01,1.157,1.068,1.068,0,0,1-1.126-1.066v-1.068h2.136Z" transform="translate(-768.061 -592.355)" fill="#00a4cc"/>
    </g>
    <path id="Path_28563" data-name="Path 28563" d="M444.34,607.9s0,.048-.044.048h-1.046c-.04,0-.044-.046-.044-.046l-.212-3.757s-.008-.035.044-.035h1.479c.039,0,.038.043.038.043Z" transform="translate(-427.925 -593.693)" fill="#00a4cc"/>
    <g id="Group_33246" data-name="Group 33246" transform="translate(9.606 4.863)">
      <g id="Group_33245" data-name="Group 33245">
        <g id="Group_33244" data-name="Group 33244">
          <path id="Path_28564" data-name="Path 28564" d="M442.076,592.506h-8.511a1.953,1.953,0,0,0-1.986,1.915v14.327a1.954,1.954,0,0,0,1.986,1.915h8.511a1.953,1.953,0,0,0,1.986-1.915V594.421A1.953,1.953,0,0,0,442.076,592.506Zm-9.362,3.4h10.213v9.761H432.714Zm.851-2.269h8.511a.819.819,0,0,1,.851.78v.355H432.714v-.355A.819.819,0,0,1,433.565,593.641Zm8.511,15.887h-8.511a.819.819,0,0,1-.851-.78v-1.942h10.213v1.942A.819.819,0,0,1,442.076,609.528Z" transform="translate(-431.579 -592.506)" fill="#00a4cc"/>
        </g>
      </g>
    </g>
    <circle id="Ellipse_54" data-name="Ellipse 54" cx="0.885" cy="0.885" r="0.885" transform="translate(14.963 19.621)" fill="#00a4cc"/>
    <path id="Path_28565" data-name="Path 28565" d="M476.047,610.277h-2.791v-.7a3.946,3.946,0,0,1-2.722.959,4.656,4.656,0,0,1,0-9.281,3.946,3.946,0,0,1,2.722.959v-.7h2.791Zm-2.791-4.379a2.184,2.184,0,0,0-2.146-2.267,2.274,2.274,0,0,0,0,4.536A2.174,2.174,0,0,0,473.256,605.9Z" transform="translate(-440.06 -592.208)" fill="#120102"/>
    <path id="Path_28566" data-name="Path 28566" d="M499.268,605.9a4.364,4.364,0,0,1-4.274,4.641,3.944,3.944,0,0,1-2.721-.959v3.664h-2.791V601.52h2.791v.7a3.944,3.944,0,0,1,2.721-.959A4.374,4.374,0,0,1,499.268,605.9Zm-2.739,0a2.106,2.106,0,0,0-2.11-2.267,2.271,2.271,0,0,0,0,4.536A2.1,2.1,0,0,0,496.53,605.9Z" transform="translate(-452.171 -592.208)" fill="#120102"/>
    <path id="Path_28567" data-name="Path 28567" d="M521.287,605.9a4.364,4.364,0,0,1-4.274,4.641,3.946,3.946,0,0,1-2.721-.959v3.664H511.5V601.52h2.791v.7a3.946,3.946,0,0,1,2.721-.959A4.374,4.374,0,0,1,521.287,605.9Zm-2.739,0a2.106,2.106,0,0,0-2.111-2.267,2.271,2.271,0,0,0,0,4.536A2.1,2.1,0,0,0,518.549,605.9Z" transform="translate(-463.655 -592.208)" fill="#120102"/>
  </g>
</svg>
