<svg xmlns="http://www.w3.org/2000/svg" width="67.315" height="13.694" viewBox="0 0 67.315 13.694">
  <g id="Group_33267" data-name="Group 33267" transform="translate(0 0)">
    <path id="Path_28657" data-name="Path 28657" d="M151.817,172.074a4.326,4.326,0,0,0-.7-1.506,3.571,3.571,0,0,0-1.246-1.061,3.821,3.821,0,0,0-1.777-.4,4.143,4.143,0,0,0-1.653.324,3.854,3.854,0,0,0-2.119,2.221,4.629,4.629,0,0,0-.292,1.655,4.8,4.8,0,0,0,.283,1.68,3.864,3.864,0,0,0,.81,1.328,3.539,3.539,0,0,0,1.287.861,4.537,4.537,0,0,0,1.684.3,4.146,4.146,0,0,0,2.306-.619,2.99,2.99,0,0,0,.846-.832,4.559,4.559,0,0,0,.582-1.217l.054-.164s.029-.071-.059-.071h-2.045c-.105,0-.117.061-.117.061l-.019.068a.736.736,0,0,1-.156.275,1.655,1.655,0,0,1-.331.292,1.706,1.706,0,0,1-.988.28,2.189,2.189,0,0,1-.721-.105,1.271,1.271,0,0,1-.505-.3,1.32,1.32,0,0,1-.32-.527,2.633,2.633,0,0,1-.127-.634h5.381c.086,0,.09-.1.09-.1l0-.071c.01-.134.014-.268.014-.4a5.432,5.432,0,0,0-.164-1.346m-5-.505a1.392,1.392,0,0,1,.47-.371,1.628,1.628,0,0,1,.749-.149,1.816,1.816,0,0,1,.607.092.973.973,0,0,1,.4.261,2.048,2.048,0,0,1,.432.9h-2.969a2.5,2.5,0,0,1,.064-.266,1.353,1.353,0,0,1,.248-.466" transform="translate(-144.03 -167.013)" fill="#fff"/>
    <path id="Path_28658" data-name="Path 28658" d="M156.732,177.144l-2.889-4.161,2.609-3.716s.034-.046-.058-.046h-2.64c-.085,0-.107.047-.107.047l-1.185,1.777-1.194-1.768a.159.159,0,0,0-.125-.056h-2.713c-.078,0-.037.053-.037.053l.181.265L151,173.027l-2.821,4.125s-.053.078.041.078h2.647a.166.166,0,0,0,.149-.09L152.434,175l1.421,2.143a.2.2,0,0,0,.149.092h2.686c.1,0,.042-.086.042-.086" transform="translate(-141.156 -166.937)" fill="#fff"/>
    <path id="Path_28659" data-name="Path 28659" d="M156.475,169.22h-3.047c-.107,0-.092.073-.092.073l.439,7.84s.008.1.092.1h2.157c.09,0,.09-.1.09-.1l.439-7.823s0-.088-.078-.088" transform="translate(-137.558 -166.938)" fill="#fff"/>
    <path id="Path_28660" data-name="Path 28660" d="M160.743,171.957a.091.091,0,0,0,.083-.1v-1.621a.077.077,0,0,0-.085-.08H159.3v-2.194a.085.085,0,0,0-.088-.09h-2.319a.079.079,0,0,0-.085.088v2.2h-1.172c-.107,0-.095.071-.095.071v1.638a.077.077,0,0,0,.08.09H156.8v4.286a2.129,2.129,0,0,0,.215,1.021,1.571,1.571,0,0,0,.6.624,2.334,2.334,0,0,0,.834.281,6.343,6.343,0,0,0,.951.068c.209,0,.422,0,.641-.014a4.96,4.96,0,0,0,.612-.059l.09-.014s.08,0,.08-.1v-1.868c0-.1-.083-.066-.083-.066l-.158.032a2.885,2.885,0,0,1-.288.041,3.2,3.2,0,0,1-.32.015,1.757,1.757,0,0,1-.392-.039.388.388,0,0,1-.171-.078.371.371,0,0,1-.078-.173,1.575,1.575,0,0,1-.039-.392v-3.562Z" transform="translate(-136.027 -167.874)" fill="#fff"/>
    <path id="Path_28661" data-name="Path 28661" d="M166.723,171.594a3.71,3.71,0,0,0-.839-1.336,3.76,3.76,0,0,0-1.312-.858,4.949,4.949,0,0,0-3.394,0,3.772,3.772,0,0,0-1.3.858,3.733,3.733,0,0,0-.839,1.336,5.234,5.234,0,0,0,0,3.445,3.743,3.743,0,0,0,.839,1.328,3.657,3.657,0,0,0,1.307.849,4.645,4.645,0,0,0,1.692.293,4.692,4.692,0,0,0,1.7-.293,3.655,3.655,0,0,0,1.314-.849,3.719,3.719,0,0,0,.839-1.328,5.177,5.177,0,0,0,0-3.445m-3.06,3.769a1.566,1.566,0,0,1-.79.18,1.53,1.53,0,0,1-.783-.178,1.422,1.422,0,0,1-.5-.485,2.2,2.2,0,0,1-.275-.712,4.288,4.288,0,0,1-.085-.851,4.4,4.4,0,0,1,.085-.858,2.1,2.1,0,0,1,.275-.712,1.531,1.531,0,0,1,.5-.487,1.482,1.482,0,0,1,.78-.183,1.53,1.53,0,0,1,.787.183,1.5,1.5,0,0,1,.507.487,2.1,2.1,0,0,1,.275.712,4.4,4.4,0,0,1,.085.858,4.288,4.288,0,0,1-.085.851,2.187,2.187,0,0,1-.275.712,1.378,1.378,0,0,1-.5.483" transform="translate(-133.798 -167.021)" fill="#fff"/>
    <path id="Path_28662" data-name="Path 28662" d="M156.39,175.684a1.493,1.493,0,1,0-1.492,1.492,1.495,1.495,0,0,0,1.492-1.492" transform="translate(-137.511 -163.482)" fill="#fff"/>
    <path id="Path_28663" data-name="Path 28663" d="M166.263,172.683a1.425,1.425,0,0,1,.007,2,1.509,1.509,0,0,1-2.058.007,1.359,1.359,0,0,1-.409-1.012,1.407,1.407,0,0,1,1.431-1.414A1.405,1.405,0,0,1,166.263,172.683Z" transform="translate(-130.279 -164.818)" fill="#fff"/>
    <path id="Path_28664" data-name="Path 28664" d="M171.607,173.875l2.309.5a3.691,3.691,0,0,1-1.414,2.231,4.179,4.179,0,0,1-2.608.848,4.3,4.3,0,0,1-3.055-1.17,4.236,4.236,0,0,1,0-6.009,4.281,4.281,0,0,1,3.055-1.178,4.186,4.186,0,0,1,2.577.832,3.762,3.762,0,0,1,1.445,2.2l-2.357.566a1.793,1.793,0,0,0-.6-1.046,1.651,1.651,0,0,0-1.068-.353,1.779,1.779,0,0,0-1.367.558,2.219,2.219,0,0,0,0,2.852,1.791,1.791,0,0,0,1.367.549A1.666,1.666,0,0,0,171.607,173.875Z" transform="translate(-129.036 -167.022)" fill="#fff"/>
    <path id="Path_28665" data-name="Path 28665" d="M178.025,170.28a4.192,4.192,0,0,1,0,5.985,4.342,4.342,0,0,1-3.064,1.163,4.408,4.408,0,0,1-3.1-1.163,4.172,4.172,0,0,1,0-5.985,4.415,4.415,0,0,1,3.1-1.163A4.349,4.349,0,0,1,178.025,170.28Zm-1.729,4.454a2.179,2.179,0,0,0-.007-2.938,1.828,1.828,0,0,0-1.328-.573,1.883,1.883,0,0,0-1.367.573,2.158,2.158,0,0,0-.008,2.938,1.877,1.877,0,0,0,1.375.573A1.815,1.815,0,0,0,176.3,174.734Z" transform="translate(-125.556 -167.01)" fill="#fff"/>
    <path id="Path_28666" data-name="Path 28666" d="M188.3,169.986a3.167,3.167,0,0,1,.863,2.3v4.932h-2.5v-4.4a1.488,1.488,0,0,0-.376-1.061,1.246,1.246,0,0,0-.943-.4,1.375,1.375,0,0,0-1.124.51,2.3,2.3,0,0,0-.415,1.485v3.864h-2.514v-4.4a1.481,1.481,0,0,0-.378-1.061,1.259,1.259,0,0,0-.958-.4,1.326,1.326,0,0,0-1.107.51,2.363,2.363,0,0,0-.4,1.485v3.864h-2.514v-7.886h2.514v.722a2.972,2.972,0,0,1,2.324-.958,2.823,2.823,0,0,1,2.577,1.334,3.326,3.326,0,0,1,2.8-1.334A2.882,2.882,0,0,1,188.3,169.986Z" transform="translate(-121.844 -167.022)" fill="#fff"/>
  </g>
</svg>
