<svg xmlns="http://www.w3.org/2000/svg" width="112.75" height="43.921" viewBox="0 0 112.75 43.921">
  <g id="Group_36203" data-name="Group 36203" transform="translate(-458.885 -1000.839)">
    <path id="Path_28746" data-name="Path 28746" d="M483.851,1077.782a13.85,13.85,0,0,0-2.243-4.826,11.392,11.392,0,0,0-4-3.4,12.245,12.245,0,0,0-5.694-1.269,13.284,13.284,0,0,0-5.3,1.036,12.378,12.378,0,0,0-6.8,7.125,14.805,14.805,0,0,0-.931,5.3,15.426,15.426,0,0,0,.906,5.39,12.366,12.366,0,0,0,2.6,4.258,11.362,11.362,0,0,0,4.125,2.761,14.54,14.54,0,0,0,5.4.964,13.331,13.331,0,0,0,7.394-1.979,9.684,9.684,0,0,0,2.71-2.669,14.619,14.619,0,0,0,1.866-3.907l.173-.523s.092-.232-.191-.232h-6.553c-.341,0-.375.2-.375.2l-.063.217a2.346,2.346,0,0,1-.5.885,5.182,5.182,0,0,1-1.059.931,5.445,5.445,0,0,1-3.168.9,7.03,7.03,0,0,1-2.311-.337,4.082,4.082,0,0,1-1.62-.957,4.205,4.205,0,0,1-1.027-1.69,8.44,8.44,0,0,1-.409-2.033h17.255c.277,0,.286-.315.286-.315l.013-.227c.029-.427.042-.859.042-1.283a17.484,17.484,0,0,0-.527-4.318m-16.033-1.618a4.448,4.448,0,0,1,1.506-1.189,5.2,5.2,0,0,1,2.406-.48,5.692,5.692,0,0,1,1.942.3,3.147,3.147,0,0,1,1.281.835,6.585,6.585,0,0,1,1.384,2.889H466.82a7.828,7.828,0,0,1,.2-.857,4.319,4.319,0,0,1,.794-1.493" transform="translate(0 -60.707)" fill="#1a1818"/>
    <path id="Path_28747" data-name="Path 28747" d="M711.109,1099.627l-9.265-13.34,8.369-11.913s.11-.148-.187-.148h-8.463c-.27,0-.341.152-.341.152l-3.8,5.7-3.826-5.669a.519.519,0,0,0-.4-.181h-8.7c-.251,0-.121.169-.121.169l.584.845,7.766,11.192-9.043,13.224s-.168.25.131.25H692.3a.528.528,0,0,0,.475-.289l4.559-6.875,4.554,6.872a.627.627,0,0,0,.479.293h8.611c.323,0,.134-.279.134-.279" transform="translate(-202.285 -66.052)" fill="#1a1818"/>
    <path id="Path_28748" data-name="Path 28748" d="M975.1,1074.145h-9.771c-.341,0-.289.235-.289.235l1.407,25.139s.026.314.291.314h6.915c.291,0,.291-.322.291-.322l1.407-25.084s.006-.282-.251-.282" transform="translate(-455.563 -65.98)" fill="#1a1818"/>
    <path id="Path_28749" data-name="Path 28749" d="M1101.495,1014.047a.287.287,0,0,0,.264-.31v-5.2a.245.245,0,0,0-.273-.253h-4.632v-7.034a.268.268,0,0,0-.28-.289h-7.439a.254.254,0,0,0-.272.282v7.04h-3.757c-.341,0-.3.226-.3.226v5.251a.247.247,0,0,0,.254.288h3.805v13.745a6.8,6.8,0,0,0,.693,3.272,5.007,5.007,0,0,0,1.915,2,7.6,7.6,0,0,0,2.678.906,20.547,20.547,0,0,0,3.048.218c.669,0,1.352-.011,2.057-.047a16.6,16.6,0,0,0,1.96-.187l.29-.048s.254-.007.254-.329v-5.991c0-.317-.264-.21-.264-.21l-.508.1a8.946,8.946,0,0,1-.923.134c-.325.032-.666.046-1.027.046a5.626,5.626,0,0,1-1.258-.122,1.25,1.25,0,0,1-.548-.253,1.155,1.155,0,0,1-.252-.552,5.187,5.187,0,0,1-.125-1.257v-11.424Z" transform="translate(-563.361 -0.109)" fill="#1a1818"/>
    <path id="Path_28750" data-name="Path 28750" d="M1284.707,1075.626a11.791,11.791,0,0,0-6.9-7.031,15.834,15.834,0,0,0-10.88,0,11.844,11.844,0,0,0-6.875,7.031,15.629,15.629,0,0,0-.936,5.533,15.435,15.435,0,0,0,.936,5.514,12.028,12.028,0,0,0,2.693,4.258,11.708,11.708,0,0,0,4.188,2.722,16.188,16.188,0,0,0,10.869,0,11.684,11.684,0,0,0,4.214-2.722,11.984,11.984,0,0,0,2.693-4.258,15.438,15.438,0,0,0,.941-5.514,15.631,15.631,0,0,0-.941-5.533m-9.815,12.087a5.042,5.042,0,0,1-2.536.575,4.915,4.915,0,0,1-2.51-.57,4.534,4.534,0,0,1-1.6-1.554,7.015,7.015,0,0,1-.881-2.285,13.7,13.7,0,0,1-.272-2.727,14.117,14.117,0,0,1,.272-2.752,6.752,6.752,0,0,1,.88-2.282,4.927,4.927,0,0,1,1.608-1.561,4.773,4.773,0,0,1,2.5-.589,4.906,4.906,0,0,1,2.526.592,4.726,4.726,0,0,1,1.622,1.558,6.654,6.654,0,0,1,.881,2.282,13.868,13.868,0,0,1,.273,2.752,13.461,13.461,0,0,1-.273,2.727,6.917,6.917,0,0,1-.881,2.285,4.4,4.4,0,0,1-1.612,1.549" transform="translate(-720.251 -60.117)" fill="#1a1818"/>
    <path id="Path_28751" data-name="Path 28751" d="M978.324,1349.252a4.786,4.786,0,1,0-4.787,4.785,4.791,4.791,0,0,0,4.787-4.785" transform="translate(-458.909 -309.277)" fill="#e71618"/>
    <path id="Path_28752" data-name="Path 28752" d="M564.372,1001.035l-3.758,4.709s-.226.27.071.27h4.434a.83.83,0,0,0,.558-.187l6.3-4.792s.223-.2-.065-.2h-7.083a.517.517,0,0,0-.455.2" transform="translate(-91.488)" fill="#1a1818"/>
    <path id="Path_28753" data-name="Path 28753" d="M1530.522,1071.078a3.066,3.066,0,0,1-.417,1.564,3,3,0,0,1-1.151,1.151,3.113,3.113,0,0,1-3.136,0,2.967,2.967,0,0,1-1.147-1.151,3.072,3.072,0,0,1-.422-1.564,3.16,3.16,0,0,1,.422-1.573,3,3,0,0,1,1.147-1.146,3.145,3.145,0,0,1,4.287,1.146,3.153,3.153,0,0,1,.417,1.573m-.6,0a2.522,2.522,0,1,0-.741,1.791,2.45,2.45,0,0,0,.741-1.791m-3.964-1.685h1.506a1.341,1.341,0,0,1,.922.263.931.931,0,0,1,.068,1.274,1.217,1.217,0,0,1-.686.354,1.168,1.168,0,0,1,.283.155,1.773,1.773,0,0,1,.268.348c0,.01.188.331.542.97h-.983a8.17,8.17,0,0,0-.65-1.148.46.46,0,0,0-.328-.188c-.024,0-.062.014-.1.014v1.322h-.843Zm.843,1.434h.356a.821.821,0,0,0,.513-.12.365.365,0,0,0,.144-.3.355.355,0,0,0-.142-.3.743.743,0,0,0-.474-.125h-.4Z" transform="translate(-958.887 -60.395)" fill="#1a1818"/>
  </g>
</svg>
