<svg xmlns="http://www.w3.org/2000/svg" width="55.55" height="56.955" viewBox="0 0 55.55 56.955">
  <path id="Path_39224" data-name="Path 39224" d="M421.986,542.682l8.622,10.351a3.752,3.752,0,0,0,4.277,1.083l12.509-5a3.752,3.752,0,0,1,4.568,5.484L444.78,566a3.752,3.752,0,0,0,.292,4.4l8.622,10.352a3.752,3.752,0,0,1-3.8,6.039l-13.06-3.307a3.753,3.753,0,0,0-4.1,1.638l-7.181,11.4a3.752,3.752,0,0,1-6.918-1.752l-.891-13.443a3.752,3.752,0,0,0-2.823-3.389l-13.06-3.307a3.753,3.753,0,0,1-.472-7.122l12.51-5a3.752,3.752,0,0,0,2.351-3.732l-.891-13.443A3.752,3.752,0,0,1,421.986,542.682Z" transform="translate(-399.029 -541.321)" fill="#ffe800"/>
  <text id="_" data-name="$" transform="translate(21.3 35.931)" fill="#231f20" font-size="26" font-family="SegoeUI, Segoe UI" letter-spacing="-0.04em"><tspan x="0" y="0">$</tspan></text>
</svg>
