<svg xmlns="http://www.w3.org/2000/svg" width="61.145" height="12.48" viewBox="0 0 61.145 12.48">
  <g id="Group_36202" data-name="Group 36202" transform="translate(-513.357 -171.462)">
    <path id="Path_28709" data-name="Path 28709" d="M339.167,173.541c-.058.088-.175.132-.234.073-.1-.1.059-.131.1-.19C339.065,173.453,339.122,173.5,339.167,173.541Z" transform="translate(226.656 7.288)" fill="#fff"/>
    <path id="Path_28711" data-name="Path 28711" d="M345.232,169.255a1.288,1.288,0,1,1-1.289-1.287,1.288,1.288,0,0,1,1.289,1.287" transform="translate(229.269 3.494)" fill="#fff"/>
    <path id="Path_28710" data-name="Path 28710" d="M330.236,175.48c-.061.215-.117.426-.166.624-.061.251-.119.48-.17.685s-.086.361-.107.478a.464.464,0,0,1-.4.385,1.179,1.179,0,0,1-.6-.046,1.407,1.407,0,0,1-.556-.346.868.868,0,0,1-.258-.638,4.983,4.983,0,0,1,.158-.994c.1-.451.251-.987.443-1.59s.419-1.261.682-1.965c.227-.6.48-1.212.755-1.812a.617.617,0,0,1,.492-.356,3.662,3.662,0,0,1,1.266.041.352.352,0,0,1,.241.487c-.231.515-.444,1.029-.634,1.529-.153.405-.3.807-.439,1.2a.046.046,0,0,0,.063.056,4.32,4.32,0,0,0,.546-.3,4.014,4.014,0,0,0,.8-.67,3.3,3.3,0,0,0,.566-.854,2.377,2.377,0,0,0,.214-1,1.237,1.237,0,0,0-.375-1,1.6,1.6,0,0,0-1.055-.317,2.532,2.532,0,0,0-1.3.337,3.869,3.869,0,0,0-1.01.836,4.113,4.113,0,0,0-.654,1.044,2.5,2.5,0,0,0-.231.939.38.38,0,0,1-.28.385.765.765,0,0,1-.512-.024,1.1,1.1,0,0,1-.476-.376,1.212,1.212,0,0,1-.215-.751,2.121,2.121,0,0,1,.314-.98,4.113,4.113,0,0,1,.909-1.092,5.368,5.368,0,0,1,1.48-.893,5.264,5.264,0,0,1,2.035-.373,5.569,5.569,0,0,1,1.285.149,4.01,4.01,0,0,1,1.144.456,2.686,2.686,0,0,1,.827.76,1.832,1.832,0,0,1,.322,1.068,2.613,2.613,0,0,1-.283,1.205,3.5,3.5,0,0,1-.76.99,4.977,4.977,0,0,1-1.112.758,7.175,7.175,0,0,1-1.1.449.04.04,0,0,0-.032.046c.008.192.022.38.041.563.022.209.051.414.086.607s.076.375.124.549c.036.136.078.268.12.393.029.08.058.158.088.232a4.582,4.582,0,0,0,.2.421,3.45,3.45,0,0,0,.224.363,2.944,2.944,0,0,0,.244.307,2.407,2.407,0,0,0,.263.249,2.343,2.343,0,0,0,.276.2,2.2,2.2,0,0,0,.29.144,2.044,2.044,0,0,0,.943.132,2.195,2.195,0,0,0,.341-.054,2.916,2.916,0,0,0,.354-.109,3.426,3.426,0,0,0,.363-.164c.047-.024.093-.049.141-.076a.338.338,0,0,1,.392.548q-.1.084-.193.163c-.154.127-.31.246-.463.351s-.29.193-.436.276c-.073.041-.148.083-.225.122a4.888,4.888,0,0,1-.448.2,4.219,4.219,0,0,1-.441.136,3.066,3.066,0,0,1-.434.075,2.992,2.992,0,0,1-.3.015c-.039,0-.08,0-.12,0a2.7,2.7,0,0,1-.407-.049c-.066-.012-.132-.029-.2-.046s-.127-.039-.19-.061a2.692,2.692,0,0,1-.363-.166,2.635,2.635,0,0,1-.336-.217,2.682,2.682,0,0,1-.253-.214,3.425,3.425,0,0,1-.281-.3,4.092,4.092,0,0,1-.253-.344c-.078-.12-.153-.249-.222-.383s-.132-.275-.192-.42-.114-.3-.163-.456-.093-.32-.132-.49-.075-.344-.1-.522c-.025-.158-.047-.319-.064-.485a.046.046,0,0,0-.09-.008" transform="translate(218.4 3.603)" fill="#fff"/>
    <path id="Path_28712" data-name="Path 28712" d="M352.858,173.273a.371.371,0,0,0-.307-.159.347.347,0,0,0-.292.151c-.076.11-.17.242-.28.39a5.394,5.394,0,0,1-.385.465,4.53,4.53,0,0,1-.39.371.438.438,0,0,1-.259.129c-.032,0-.095,0-.109-.161a2.218,2.218,0,0,1,.075-.656,7.783,7.783,0,0,1,.283-.9c.124-.331.248-.646.37-.938s.234-.556.331-.771.156-.354.18-.415a.457.457,0,0,0-.081-.5.948.948,0,0,0-.476-.292,1.282,1.282,0,0,0-.617-.008.833.833,0,0,0-.549.4,9.086,9.086,0,0,0-.446.883c-.181.4-.358.839-.522,1.312q-.15.432-.275.873a2.481,2.481,0,0,1-.817,1.244c-.142.115-.29.224-.444.326-.068.044-.137.085-.205.124a.023.023,0,0,1-.029-.034c.119-.158.236-.327.349-.507a7.085,7.085,0,0,0,.636-1.324,6.286,6.286,0,0,0,.37-1.456,3.2,3.2,0,0,0-.049-1.126,1.458,1.458,0,0,0-.431-.754,1.132,1.132,0,0,0-.771-.278,1.768,1.768,0,0,0-.973.28,3.783,3.783,0,0,0-.546.424c-.015.012-.025.01-.036-.005a.712.712,0,0,0-.149-.166,1.121,1.121,0,0,0-.5-.231,1.157,1.157,0,0,0-.583.039.747.747,0,0,0-.454.415c-.186.4-.381.866-.583,1.387s-.4,1.063-.582,1.614l-.061.185a2.482,2.482,0,0,1-.844,1.185q-.155.12-.32.229c-.068.044-.137.085-.205.124a.023.023,0,0,1-.031-.034c.119-.158.236-.326.351-.507a7.19,7.19,0,0,0,.636-1.324,6.286,6.286,0,0,0,.37-1.456,3.205,3.205,0,0,0-.049-1.126,1.458,1.458,0,0,0-.431-.754,1.132,1.132,0,0,0-.771-.278,1.76,1.76,0,0,0-.973.28,3.893,3.893,0,0,0-.548.424c-.014.012-.025.01-.034-.005a.752.752,0,0,0-.149-.166,1.119,1.119,0,0,0-.5-.231,1.152,1.152,0,0,0-.581.039.753.753,0,0,0-.456.415c-.185.4-.381.866-.582,1.387-.188.488-.371,1-.546,1.509a2.384,2.384,0,0,1-.621.983c-.075.073-.149.139-.22.2a.438.438,0,0,1-.259.129c-.032,0-.093,0-.107-.161a2.113,2.113,0,0,1,.075-.656,7.436,7.436,0,0,1,.281-.9c.122-.327.247-.643.37-.938s.236-.558.331-.771.158-.354.18-.415a.453.453,0,0,0-.081-.5.93.93,0,0,0-.485-.292,1.285,1.285,0,0,0-.617-.008.825.825,0,0,0-.539.4c-.027.042-.054.09-.083.142a.023.023,0,0,1-.042-.007,1.221,1.221,0,0,0-.12-.331.949.949,0,0,0-.363-.375,1.159,1.159,0,0,0-.605-.146,2.578,2.578,0,0,0-1.716.782,5.53,5.53,0,0,0-1.378,2.413,6.094,6.094,0,0,0-.292,1.45,3.232,3.232,0,0,0,.105,1.126,1.54,1.54,0,0,0,.471.744,1.19,1.19,0,0,0,.785.276,1.771,1.771,0,0,0,.631-.114,2.433,2.433,0,0,0,.526-.281,2.3,2.3,0,0,0,.336-.293.138.138,0,0,1,.232.056,1.111,1.111,0,0,0,.141.3.791.791,0,0,0,.7.329,1.75,1.75,0,0,0,1.049-.39,5.391,5.391,0,0,0,.473-.393.046.046,0,0,1,.075.047c-.088.3-.17.573-.241.831-.122.436-.222.809-.3,1.114a3.131,3.131,0,0,0-.112.568.917.917,0,0,0,.231.632,1.259,1.259,0,0,0,.51.349,1.061,1.061,0,0,0,.365.068.85.85,0,0,0,.187-.02.453.453,0,0,0,.361-.382l0-.005c.019-.136.058-.319.114-.548s.127-.5.209-.8.17-.617.276-1c.051-.175.1-.358.159-.548a.047.047,0,0,1,.085-.01,1.252,1.252,0,0,0,.083.127.97.97,0,0,0,.826.353q.112.005.224.005h0a4.154,4.154,0,0,0,1.533-.28,6.217,6.217,0,0,0,1.221-.646.047.047,0,0,1,.071.053c-.105.344-.2.668-.283.963-.122.439-.222.812-.3,1.114a3.013,3.013,0,0,0-.11.568.909.909,0,0,0,.231.632,1.243,1.243,0,0,0,.509.349,1.062,1.062,0,0,0,.365.068.877.877,0,0,0,.188-.02.452.452,0,0,0,.359-.382l0-.005c.02-.136.058-.32.114-.548s.127-.5.209-.8.171-.619.278-1c.049-.175.1-.358.158-.548a.047.047,0,0,1,.085-.01,1.036,1.036,0,0,0,.085.127.966.966,0,0,0,.824.353c.075,0,.151.005.224.005h0a4.154,4.154,0,0,0,1.533-.28,6.072,6.072,0,0,0,1.407-.778c.069-.053.137-.105.2-.159a.046.046,0,0,1,.075.037v.053a1.391,1.391,0,0,0,.205.793.789.789,0,0,0,.7.329,1.788,1.788,0,0,0,1.056-.39,5.893,5.893,0,0,0,.939-.861,9.23,9.23,0,0,0,.744-.953c.21-.315.353-.531.434-.658a.282.282,0,0,0,.005-.312M335.042,171.6a6.384,6.384,0,0,1-.144.782,7.144,7.144,0,0,1-.29.9c-.12.309-.249.6-.381.861a4.662,4.662,0,0,1-.392.653,1.92,1.92,0,0,1-.353.38.268.268,0,0,1-.141.066l-.019-.005c-.015-.007-.064-.041-.09-.2a2.148,2.148,0,0,1-.007-.551,4.891,4.891,0,0,1,.136-.771,7.347,7.347,0,0,1,.29-.9c.122-.312.251-.6.381-.861a5.052,5.052,0,0,1,.392-.661,1.815,1.815,0,0,1,.353-.383.261.261,0,0,1,.139-.066l.019,0c.015.007.068.042.1.2a1.876,1.876,0,0,1,.007.551m6.238.015a7.585,7.585,0,0,1-.19.775c-.088.288-.2.592-.327.9s-.29.6-.436.863a5.459,5.459,0,0,1-.432.661,1.906,1.906,0,0,1-.375.387.286.286,0,0,1-.149.068l-.02,0c-.014-.007-.061-.039-.081-.195a1.8,1.8,0,0,1,.031-.553,6.607,6.607,0,0,1,.19-.782,8.519,8.519,0,0,1,.327-.9,7.5,7.5,0,0,1,.427-.858,5.417,5.417,0,0,1,.437-.656,2.042,2.042,0,0,1,.378-.38.284.284,0,0,1,.148-.068l.02.005c.014.005.061.039.083.193a1.866,1.866,0,0,1-.031.546m5.765,0a7.567,7.567,0,0,1-.19.775,8.718,8.718,0,0,1-.327.9c-.142.31-.288.6-.436.863a5.479,5.479,0,0,1-.431.661,1.905,1.905,0,0,1-.376.387.281.281,0,0,1-.149.068l-.02,0c-.014-.007-.061-.039-.081-.195a1.913,1.913,0,0,1,.031-.553,6.791,6.791,0,0,1,.19-.782,8.533,8.533,0,0,1,.327-.9,7.645,7.645,0,0,1,.427-.858,5.479,5.479,0,0,1,.439-.656,1.988,1.988,0,0,1,.376-.38.284.284,0,0,1,.147-.068l.02.005c.014.005.061.039.083.193a1.864,1.864,0,0,1-.031.546" transform="translate(221.355 4.669)" fill="#fff"/>
    <path id="Path_28713" data-name="Path 28713" d="M335.292,172.06a2.99,2.99,0,0,1-4.276.212c-.71-.522-1.346-1.143-2.057-1.662a8.225,8.225,0,0,0-1.762-1.049,3.483,3.483,0,0,0-3.182.32,20.471,20.471,0,0,0-1.914,1.407.373.373,0,0,1-.22.1.377.377,0,0,1-.22-.1,20.471,20.471,0,0,0-1.914-1.407,3.483,3.483,0,0,0-3.182-.32,8.257,8.257,0,0,0-1.76,1.049c-.712.519-1.348,1.139-2.057,1.662a2.993,2.993,0,0,1-4.278-.212l-.358-.312a8.017,8.017,0,0,0,1.367,3.235,6.866,6.866,0,0,0,3.469,2.616c3.371,1.139,7.63-.449,8.933-3.449,1.305,3,5.563,4.588,8.935,3.449a6.862,6.862,0,0,0,3.467-2.616,7.994,7.994,0,0,0,1.367-3.235c-.119.1-.237.209-.358.312" transform="translate(205.245 4.43)" fill="#fff"/>
  </g>
</svg>
