<svg xmlns="http://www.w3.org/2000/svg" width="105.574" height="16.17" viewBox="0 0 105.574 16.17">
  <g id="Group_36427" data-name="Group 36427" transform="translate(-757.409 -52.683)">
    <path id="Path_39412" data-name="Path 39412" d="M761.421,57.055a1.876,1.876,0,0,1-.015-.793,1.244,1.244,0,0,1,1.381-1.017,1.29,1.29,0,0,1,1.4,1.371v.934h3.764V56.49c0-3.283-2.96-3.807-5.094-3.807-2.681,0-4.871.89-5.272,3.354a5.219,5.219,0,0,0,.03,2.034c.654,3.086,6.018,3.978,6.8,5.931a1.948,1.948,0,0,1,.03,1.114,1.306,1.306,0,0,1-1.474,1.02,1.345,1.345,0,0,1-1.507-1.374l-.005-1.452h-4.05v1.154c0,3.374,2.65,4.389,5.487,4.389,2.727,0,4.966-.929,5.331-3.455a7.488,7.488,0,0,0-.016-2.47C767.574,59.76,761.85,58.822,761.421,57.055Zm49.084.037a2.012,2.012,0,0,1-.013-.78,1.237,1.237,0,0,1,1.367-1.01,1.274,1.274,0,0,1,1.383,1.359v.923h3.721V56.532c0-3.252-2.916-3.763-5.026-3.763-2.659,0-4.829.876-5.226,3.324a5.037,5.037,0,0,0,.036,2.011c.647,3.051,5.958,3.937,6.729,5.866a2.041,2.041,0,0,1,.027,1.106c-.115.5-.453,1.007-1.454,1.007a1.336,1.336,0,0,1-1.505-1.354V63.28h-4.005v1.152c0,3.336,2.613,4.343,5.428,4.343,2.7,0,4.922-.921,5.279-3.418a7.352,7.352,0,0,0-.026-2.447C816.595,59.78,810.933,58.838,810.505,57.092Zm34.27,8.223-3.554-12.151h-5.6V68.1h3.7l-.215-12.54,3.818,12.54H848.3V53.164H844.57ZM773.567,53.164l-2.8,15.092h4.077l2.107-13.971,2.056,13.971h4.049l-2.784-15.092Zm22.8,0-1.9,11.8-1.9-11.8H786.4l-.327,15.092h3.772l.1-13.971,2.6,13.971h3.827l2.6-13.971.1,13.971h3.782l-.338-15.092Zm35.072,0h-3.817V64.329a2.631,2.631,0,0,1-.034.573,1.5,1.5,0,0,1-2.889,0,2.465,2.465,0,0,1-.038-.573V53.164h-3.816V63.983c-.005.278.016.849.033,1,.264,2.819,2.485,3.734,5.26,3.734s5-.915,5.269-3.734a7.758,7.758,0,0,0,.032-1Zm26.208,6.621v2.2h1.547V64.17a2.735,2.735,0,0,1-.039.574,1.631,1.631,0,0,1-3.085,0,3.841,3.841,0,0,1-.039-.574v-6.9a3.075,3.075,0,0,1,.068-.713,1.582,1.582,0,0,1,3.009,0,4,4,0,0,1,.046.582v.837h3.8v-.495a9.033,9.033,0,0,0-.028-1c-.286-2.831-2.618-3.727-5.293-3.727s-4.966.9-5.3,3.727c-.03.258-.076.722-.076,1v6.345a8.7,8.7,0,0,0,.06,1c.248,2.753,2.634,3.729,5.3,3.729,2.686,0,5.055-.976,5.307-3.729.045-.5.05-.719.056-1V59.785Z" transform="translate(0 0)" fill="#05509f"/>
  </g>
</svg>
