<svg id="Group_36333" data-name="Group 36333" xmlns="http://www.w3.org/2000/svg" width="62.179" height="26.445" viewBox="0 0 62.179 26.445">
  <g id="Group_36329" data-name="Group 36329" transform="translate(23.287 5.967)">
    <path id="Path_39183" data-name="Path 39183" d="M802.431,1256.493a1.724,1.724,0,0,0,.05-.442,11.887,11.887,0,0,1,.538-2.843,3.232,3.232,0,0,1,2.737-2.265,10.061,10.061,0,0,1,1.633-.109h.09c0,.018,0,.03,0,.034a1.158,1.158,0,0,0-.357,1.051,8.639,8.639,0,0,1-.015.92c-.006.086-.044.1-.117.1-.391,0-.782,0-1.173,0-.109,0-.135.033-.132.135.007.231.007.462,0,.693,0,.1.031.117.121.116.391,0,.782,0,1.173,0,.1,0,.125.025.125.125q0,1.92,0,3.84c0,1.324.017,2.648.016,3.972a2.2,2.2,0,0,0,.765,1.666c.054.051.162.1.117.185s-.138.027-.209.023a8.4,8.4,0,0,1-2.093-.358,4.219,4.219,0,0,1-2.455-1.886,5.763,5.763,0,0,1-.684-2.031,9.164,9.164,0,0,1-.108-.979c0-.025,0-.054-.025-.071Z" transform="translate(-802.431 -1250.012)" fill="#231f20"/>
    <path id="Path_39184" data-name="Path 39184" d="M832.717,1254.605q0-2.4,0-4.8c0-.2-.02-.176.181-.173.582.008,1.166-.008,1.745.056a2.069,2.069,0,0,1,2,1.655,9.844,9.844,0,0,1,.3,1.823,31.929,31.929,0,0,1-.164,6.582,7.15,7.15,0,0,1-.481,1.945,2.315,2.315,0,0,1-2.08,1.468c-.791.06-1.581-.007-2.372,0-.817,0-1.635-.021-2.453-.033-1.3-.018-2.6-.031-3.893-.056a5.419,5.419,0,0,1-1.245-.1,2.289,2.289,0,0,1-1.7-1.676,6.909,6.909,0,0,1-.218-1.778c-.05-1.172-.1-2.343-.1-3.516,0-1.324.048-2.648.145-3.969a6.645,6.645,0,0,1,.111-.978,1.551,1.551,0,0,1,1.167-1.222,5.437,5.437,0,0,1,1.207-.191c.754-.045,1.507-.1,2.261-.131.618-.025,1.236-.025,1.853-.029.733,0,1.467,0,2.2,0,.1,0,.132.019.132.131,0,.987.012,1.974.022,2.96,0,.218.014.436.015.653,0,.333-.053.365-.338.2a2.075,2.075,0,0,0-.7-.285,3.237,3.237,0,0,0-3.263,1.122,4.821,4.821,0,0,0-1.106,3.441,6.612,6.612,0,0,0,.384,1.925,2.994,2.994,0,0,0,1.771,1.773,4.1,4.1,0,0,0,1.775.279,5.347,5.347,0,0,0,1.607-.278,2.962,2.962,0,0,0,.761-.432,1.263,1.263,0,0,0,.44-.936,15.166,15.166,0,0,0,.044-2.224c-.007-.324-.016-.648-.017-.973C832.716,1256.09,832.717,1255.348,832.717,1254.605Z" transform="translate(-810.259 -1249.475)" fill="#231f20"/>
    <path id="Path_39185" data-name="Path 39185" d="M859.086,1255.57a16.612,16.612,0,0,1-.341,3.493,7.138,7.138,0,0,1-1.072,2.6,4.172,4.172,0,0,1-2.961,1.793,10.275,10.275,0,0,1-2.062.012,9.16,9.16,0,0,1-1.721-.263,3.6,3.6,0,0,1-2.356-1.888,8.656,8.656,0,0,1-.948-2.918,22.34,22.34,0,0,1-.231-3.227,6.842,6.842,0,0,1,.348-2.2,3.354,3.354,0,0,1,2.262-2.223,9.222,9.222,0,0,1,2.032-.4,17.588,17.588,0,0,1,2.637-.023,6.782,6.782,0,0,1,1.967.377,3.431,3.431,0,0,1,2.182,2.407,7.506,7.506,0,0,1,.262,1.879C859.091,1255.188,859.086,1255.379,859.086,1255.57Zm-3.593,1.76c0-.876,0-1.751,0-2.627,0-.1.014-.138.128-.138.457,0,.915-.014,1.373-.018.086,0,.117-.022.115-.111-.006-.2-.007-.4,0-.6,0-.1-.025-.137-.132-.135-.417.01-.835.01-1.253.013-.175,0-.177,0-.178-.181,0-.4,0-.8,0-1.2,0-.214-.01-.427-.019-.64-.006-.139-.087-.179-.2-.1a2.834,2.834,0,0,0-.254.194c-.258.218-.5.456-.751.679a.506.506,0,0,0-.184.4c0,.258-.006.516,0,.774,0,.115-.04.128-.137.123-.24-.012-.48-.011-.719-.02-.064,0-.1.008-.1.085,0,.2,0,.4,0,.6,0,.071.026.09.094.091.249,0,.5.024.745.016.128,0,.14.042.14.15q0,2.414,0,4.828a4.509,4.509,0,0,0,.055.717,1.534,1.534,0,0,0,.842,1.26,2.129,2.129,0,0,0,1.864.041.547.547,0,0,0,.327-.348.229.229,0,0,0-.259-.312,2.788,2.788,0,0,1-.546.015c-.518-.047-.72-.157-.849-.66a1.77,1.77,0,0,1-.045-.382C855.515,1259.01,855.513,1258.169,855.493,1257.33Z" transform="translate(-820.196 -1249.799)" fill="#231f20"/>
    <path id="Path_39186" data-name="Path 39186" d="M813.26,1258.81c0-.916.009-1.832,0-2.747-.009-.676,0-1.351-.012-2.026,0-.117.032-.151.148-.151.644,0,1.288-.015,1.932-.018.1,0,.129-.025.122-.127-.015-.217-.021-.435-.02-.653,0-.085-.022-.117-.109-.117-.622,0-1.244-.01-1.866-.016-.185,0-.185,0-.185-.18q0-.867,0-1.734c0-.081.01-.12.109-.109a8.9,8.9,0,0,1,1.96.421,4.209,4.209,0,0,1,2.194,1.588,3.86,3.86,0,0,1,.621,1.847,9.471,9.471,0,0,1-.267,2.773,18.367,18.367,0,0,1-.88,3.093,5.523,5.523,0,0,1-1.244,1.966,1.493,1.493,0,0,1-1.709.342,1.424,1.424,0,0,1-.782-1.367c-.006-.929,0-1.858,0-2.787Z" transform="translate(-806.703 -1250.05)" fill="#231f20"/>
    <path id="Path_39187" data-name="Path 39187" d="M834.725,1260.181c0,.59,0,1.181,0,1.772a6.079,6.079,0,0,1-.064.889.72.72,0,0,1-.537.617,2.333,2.333,0,0,1-2.292-.478,3.1,3.1,0,0,1-.979-1.915,4.44,4.44,0,0,1,.276-2.634,2.7,2.7,0,0,1,1.412-1.455,1.905,1.905,0,0,1,1.131-.15,1.21,1.21,0,0,1,1.033,1.2,14.956,14.956,0,0,1,.021,1.6q0,.281,0,.56Z" transform="translate(-813.628 -1252.368)" fill="#231f20"/>
  </g>
  <g id="Group_36330" data-name="Group 36330" transform="translate(0)">
    <path id="Path_39188" data-name="Path 39188" d="M777.767,1266.479c-1.222,2.177-4.2,2.653-6.44,2.653a15.976,15.976,0,0,1-2.922-.238,5.2,5.2,0,0,1-3.847-2.326,7.486,7.486,0,0,1-.625-3.727v-.8h5.754v1.4c0,.954.358,1.7,1.491,1.7a1.44,1.44,0,0,0,.775-.209c.447-.268.6-.656.6-1.55,0-1.073-.358-1.371-1.759-2.385l-3.7-2.654c-2.564-1.849-2.743-3.19-2.743-5.009a6.459,6.459,0,0,1,.507-2.922c1.163-2.5,4.115-3.011,6.53-3.011a8.4,8.4,0,0,1,5.277,1.58,4.395,4.395,0,0,1,1.1,1.461,6.755,6.755,0,0,1,.447,2.952v1.014H772.7V1253a1.4,1.4,0,0,0-.09-.685,1.341,1.341,0,0,0-2.594.507,1.282,1.282,0,0,0,.239.805,9.69,9.69,0,0,0,2,1.61l2.892,2.177c.507.387,1.014.8,1.491,1.222.954.895,1.818,1.938,1.818,4.621A6.418,6.418,0,0,1,777.767,1266.479Z" transform="translate(-763.933 -1242.687)" fill="#231f20"/>
    <path id="Path_39189" data-name="Path 39189" d="M791.27,1265.728v-21.05h4.609v21.05Zm4.514-22.779h-3.836l1.213-3.34h4.412Z" transform="translate(-774.734 -1239.61)" fill="#231f20"/>
  </g>
  <g id="Group_36331" data-name="Group 36331" transform="translate(23.554 20.667)">
    <path id="Path_39190" data-name="Path 39190" d="M802.872,1274.1h1.576v.312h-.609v1.847h-.353v-1.847h-.615Z" transform="translate(-802.872 -1273.906)" fill="#231f20"/>
    <path id="Path_39191" data-name="Path 39191" d="M806.641,1276.328l.007.256a3.95,3.95,0,0,1-.637.072c-.473,0-.656-.252-.656-.807,0-.577.249-.838.684-.838s.662.23.662.722l-.022.246H805.7c0,.252.1.378.359.378S806.641,1276.328,806.641,1276.328Zm-.277-.614c0-.316-.1-.419-.325-.419s-.337.116-.341.419Z" transform="translate(-803.853 -1274.264)" fill="#231f20"/>
    <path id="Path_39192" data-name="Path 39192" d="M808.162,1273.984h.344v2.232h-.344Z" transform="translate(-804.962 -1273.858)" fill="#231f20"/>
    <path id="Path_39193" data-name="Path 39193" d="M810.612,1276.328l.006.256a3.942,3.942,0,0,1-.637.072c-.473,0-.655-.252-.655-.807,0-.577.249-.838.684-.838s.662.23.662.722l-.022.246h-.977c0,.252.1.378.359.378S810.612,1276.328,810.612,1276.328Zm-.278-.614c0-.316-.095-.419-.325-.419s-.337.116-.34.419Z" transform="translate(-805.422 -1274.264)" fill="#231f20"/>
    <path id="Path_39194" data-name="Path 39194" d="M812.178,1275.067l.3,1.283h.1l.315-1.283h.35l-.41,1.576h-.612l-.406-1.576Z" transform="translate(-806.407 -1274.286)" fill="#231f20"/>
    <path id="Path_39195" data-name="Path 39195" d="M814.626,1274.026h.344v.362h-.344Zm0,.63h.344v1.576h-.344Z" transform="translate(-807.516 -1273.875)" fill="#231f20"/>
    <path id="Path_39196" data-name="Path 39196" d="M816.923,1275.372s-.372-.051-.561-.051-.275.044-.275.174c0,.1.067.133.375.186.379.067.514.161.514.476,0,.368-.234.5-.624.5a4.156,4.156,0,0,1-.583-.069l.013-.287s.378.05.539.05c.227,0,.315-.047.315-.186,0-.111-.053-.145-.366-.2-.347-.057-.523-.132-.523-.467,0-.356.278-.489.59-.489a4.108,4.108,0,0,1,.593.069Z" transform="translate(-807.959 -1274.266)" fill="#231f20"/>
    <path id="Path_39197" data-name="Path 39197" d="M818.329,1274.026h.344v.362h-.344Zm0,.63h.344v1.576h-.344Z" transform="translate(-808.979 -1273.875)" fill="#231f20"/>
    <path id="Path_39198" data-name="Path 39198" d="M820.165,1274.523c.526,0,.7.3.7.813s-.16.832-.7.832-.7-.308-.7-.832S819.639,1274.523,820.165,1274.523Zm-.419-.429.082.224.769-.246-.107-.3Zm.419,1.784c.293,0,.356-.177.356-.542s-.079-.523-.356-.523-.356.157-.356.523S819.872,1275.878,820.165,1275.878Z" transform="translate(-809.427 -1273.776)" fill="#231f20"/>
    <path id="Path_39199" data-name="Path 39199" d="M822.352,1276.621v-1.576h.341v.1a1.05,1.05,0,0,1,.435-.132c.438,0,.545.249.545.766v.844h-.341v-.835c0-.315-.04-.469-.28-.469a.956.956,0,0,0-.356.082v1.223Z" transform="translate(-810.569 -1274.264)" fill="#231f20"/>
    <path id="Path_39200" data-name="Path 39200" d="M826.415,1276.263V1274.1h.747c.7,0,.864.372.864,1.043s-.151,1.115-.864,1.115Zm.747-1.853h-.4v1.544h.4c.436,0,.5-.334.5-.807S827.6,1274.41,827.162,1274.41Z" transform="translate(-812.174 -1273.906)" fill="#231f20"/>
    <path id="Path_39201" data-name="Path 39201" d="M829.692,1274.026h.344v.362h-.344Zm0,.63h.344v1.576h-.344Z" transform="translate(-813.469 -1273.875)" fill="#231f20"/>
    <path id="Path_39202" data-name="Path 39202" d="M830.824,1276.9c0-.161.079-.258.24-.381a.273.273,0,0,1-.1-.23.837.837,0,0,1,.113-.252.484.484,0,0,1-.226-.472c0-.4.268-.549.63-.549a1.733,1.733,0,0,1,.322.041l.488-.013v.278l-.262-.016a.412.412,0,0,1,.085.259c0,.428-.224.545-.643.545a.96.96,0,0,1-.139-.013.654.654,0,0,0-.044.148c0,.1.035.12.34.123.5,0,.653.107.653.47s-.305.516-.728.516C831.073,1277.354,830.824,1277.26,830.824,1276.9Zm.463-.255a.262.262,0,0,0-.126.223c0,.145.1.205.391.205.255,0,.382-.063.382-.217,0-.171-.082-.189-.338-.192C831.5,1276.664,831.287,1276.646,831.287,1276.646Zm.482-1.081c0-.189-.082-.281-.293-.281s-.289.091-.289.281.088.28.289.28S831.769,1275.756,831.769,1275.565Z" transform="translate(-813.916 -1274.266)" fill="#231f20"/>
    <path id="Path_39203" data-name="Path 39203" d="M833.688,1274.026h.344v.362h-.344Zm0,.63h.344v1.576h-.344Z" transform="translate(-815.047 -1273.875)" fill="#231f20"/>
    <path id="Path_39204" data-name="Path 39204" d="M835.274,1275.062v.694c0,.236.01.318.174.318.088,0,.258-.01.258-.01l.016.275a2.383,2.383,0,0,1-.321.04c-.356,0-.466-.132-.466-.586v-.731h-.2v-.293h.2v-.457h.34v.457h.435v.293Z" transform="translate(-815.46 -1273.988)" fill="#231f20"/>
    <path id="Path_39205" data-name="Path 39205" d="M837.914,1276.25a.135.135,0,0,0,.139.145l-.01.261a.6.6,0,0,1-.419-.117,1.386,1.386,0,0,1-.508.117c-.312,0-.47-.173-.47-.5s.183-.448.521-.476l.406-.034v-.114c0-.173-.076-.227-.23-.227-.211,0-.592.032-.592.032l-.013-.243a3.266,3.266,0,0,1,.634-.082c.384,0,.542.161.542.52Zm-.706-.328c-.145.013-.218.082-.218.224s.06.23.192.23a1.492,1.492,0,0,0,.391-.069v-.419Z" transform="translate(-816.216 -1274.264)" fill="#231f20"/>
    <path id="Path_39206" data-name="Path 39206" d="M839.489,1273.984h.344v2.232h-.344Z" transform="translate(-817.339 -1273.858)" fill="#231f20"/>
    <path id="Path_39207" data-name="Path 39207" d="M841.925,1275.045h.341v.1a.955.955,0,0,1,.407-.132c.41,0,.6.233.6.806,0,.65-.221.838-.706.838a2.112,2.112,0,0,1-.3-.028v.671h-.344Zm.344.36v.93a2.111,2.111,0,0,0,.278.025c.293,0,.378-.155.378-.542,0-.369-.117-.5-.312-.5A.9.9,0,0,0,842.269,1275.4Z" transform="translate(-818.302 -1274.264)" fill="#231f20"/>
    <path id="Path_39208" data-name="Path 39208" d="M845.827,1276.25a.135.135,0,0,0,.138.145l-.009.261a.6.6,0,0,1-.419-.117,1.391,1.391,0,0,1-.508.117c-.312,0-.469-.173-.469-.5s.183-.448.52-.476l.406-.034v-.114c0-.173-.076-.227-.23-.227-.212,0-.593.032-.593.032l-.013-.243a3.265,3.265,0,0,1,.634-.082c.384,0,.542.161.542.52Zm-.706-.328c-.145.013-.218.082-.218.224s.06.23.192.23a1.49,1.49,0,0,0,.391-.069v-.419Z" transform="translate(-819.343 -1274.264)" fill="#231f20"/>
    <path id="Path_39209" data-name="Path 39209" d="M847.372,1275.045h.341v.19a1.754,1.754,0,0,1,.536-.224v.344a2.764,2.764,0,0,0-.533.166v1.1h-.344Z" transform="translate(-820.454 -1274.264)" fill="#231f20"/>
    <path id="Path_39210" data-name="Path 39210" d="M850.356,1276.25a.135.135,0,0,0,.138.145l-.009.261a.6.6,0,0,1-.419-.117,1.386,1.386,0,0,1-.508.117c-.312,0-.47-.173-.47-.5s.183-.448.521-.476l.406-.034v-.114c0-.173-.076-.227-.23-.227-.211,0-.592.032-.592.032l-.013-.243a3.265,3.265,0,0,1,.634-.082c.384,0,.542.161.542.52Zm-.707-.328c-.145.013-.217.082-.217.224s.059.23.192.23a1.492,1.492,0,0,0,.391-.069v-.419Z" transform="translate(-821.132 -1274.264)" fill="#231f20"/>
    <path id="Path_39211" data-name="Path 39211" d="M852.772,1274.1h1.576v.312h-.608v1.847h-.353v-1.847h-.615Z" transform="translate(-822.588 -1273.906)" fill="#231f20"/>
    <path id="Path_39212" data-name="Path 39212" d="M856.661,1275.824c0,.523-.161.832-.7.832s-.7-.308-.7-.832.176-.813.7-.813S856.661,1275.313,856.661,1275.824Zm-.347,0c0-.366-.079-.523-.356-.523s-.356.157-.356.523.063.542.356.542S856.314,1276.189,856.314,1275.824Z" transform="translate(-823.569 -1274.264)" fill="#231f20"/>
    <path id="Path_39213" data-name="Path 39213" d="M859.384,1276.215h-.341v-.082a1.137,1.137,0,0,1-.422.117c-.4,0-.6-.21-.6-.819,0-.571.205-.826.656-.826a2.775,2.775,0,0,1,.359.041v-.662h.344Zm-.344-.35v-.933a2.625,2.625,0,0,0-.334-.031c-.233,0-.334.17-.334.529,0,.4.11.514.3.514A1.089,1.089,0,0,0,859.04,1275.866Z" transform="translate(-824.663 -1273.858)" fill="#231f20"/>
    <path id="Path_39214" data-name="Path 39214" d="M862.242,1275.824c0,.523-.16.832-.7.832s-.7-.308-.7-.832.177-.813.7-.813S862.242,1275.313,862.242,1275.824Zm-.347,0c0-.366-.079-.523-.356-.523s-.356.157-.356.523.063.542.356.542S861.9,1276.189,861.9,1275.824Z" transform="translate(-825.774 -1274.264)" fill="#231f20"/>
    <path id="Path_39215" data-name="Path 39215" d="M864.767,1275.372s-.372-.051-.561-.051-.274.044-.274.174c0,.1.066.133.374.186.379.067.514.161.514.476,0,.368-.234.5-.624.5a4.156,4.156,0,0,1-.583-.069l.013-.287s.378.05.539.05c.226,0,.315-.047.315-.186,0-.111-.054-.145-.366-.2-.347-.057-.523-.132-.523-.467,0-.356.278-.489.589-.489a4.094,4.094,0,0,1,.593.069Z" transform="translate(-826.862 -1274.266)" fill="#231f20"/>
  </g>
  <g id="Group_36332" data-name="Group 36332" transform="translate(49.305 23.994)">
    <path id="Path_39216" data-name="Path 39216" d="M846.688,1281.655a2.673,2.673,0,0,1-.569.081.6.6,0,0,1-.677-.666c0-.718.325-1.726,1.181-1.726a2.276,2.276,0,0,1,.572.091l-.088.284a2.784,2.784,0,0,0-.5-.047c-.5,0-.775.721-.775,1.37,0,.237.1.365.335.365a3.6,3.6,0,0,0,.548-.05Z" transform="translate(-845.442 -1279.303)" fill="#231f20"/>
    <path id="Path_39217" data-name="Path 39217" d="M849.534,1280.993c0,.565-.3,1.154-.86,1.154-.4,0-.625-.176-.625-.6,0-.569.328-1.16.853-1.16C849.3,1280.385,849.534,1280.571,849.534,1280.993Zm-.365,0c0-.18-.088-.295-.267-.295-.3,0-.488.437-.488.853,0,.183.088.287.26.287C848.982,1281.836,849.168,1281.406,849.168,1280.99Z" transform="translate(-846.472 -1279.715)" fill="#231f20"/>
    <path id="Path_39218" data-name="Path 39218" d="M851.236,1279.277h.365l-.552,2.4h-.369Z" transform="translate(-847.512 -1279.277)" fill="#231f20"/>
    <path id="Path_39219" data-name="Path 39219" d="M853.593,1280.993c0,.565-.3,1.154-.86,1.154-.4,0-.626-.176-.626-.6,0-.569.328-1.16.853-1.16C853.363,1280.385,853.593,1280.571,853.593,1280.993Zm-.365,0c0-.18-.088-.295-.267-.295-.3,0-.488.437-.488.853,0,.183.088.287.261.287C853.041,1281.836,853.227,1281.406,853.227,1280.99Z" transform="translate(-848.075 -1279.715)" fill="#231f20"/>
    <path id="Path_39220" data-name="Path 39220" d="M855.693,1282.108l.19-.815a2.509,2.509,0,0,0,.06-.375c0-.139-.043-.22-.179-.22-.156,0-.4.281-.4.281l-.26,1.13h-.366l.389-1.691h.352l-.037.219a.756.756,0,0,1,.491-.257.348.348,0,0,1,.359.267.947.947,0,0,1,.541-.267c.292,0,.4.2.4.454a2.465,2.465,0,0,1-.065.436l-.193.839h-.369l.2-.815a2.394,2.394,0,0,0,.061-.365c0-.145-.047-.23-.169-.23-.162,0-.389.243-.389.243a2.491,2.491,0,0,1-.054.328l-.193.839Z" transform="translate(-849.114 -1279.712)" fill="#231f20"/>
    <path id="Path_39221" data-name="Path 39221" d="M860.721,1280.478c0,.6-.295,1.228-.873,1.228a4.273,4.273,0,0,1-.761-.1l.534-2.331h.369l-.2.876a.8.8,0,0,1,.45-.21C860.62,1279.944,860.721,1280.2,860.721,1280.478Zm-.376.037c0-.132-.03-.257-.217-.257a.864.864,0,0,0-.416.22l-.2.88a2.048,2.048,0,0,0,.335.037C860.217,1281.4,860.345,1280.769,860.345,1280.515Z" transform="translate(-850.833 -1279.277)" fill="#231f20"/>
    <path id="Path_39222" data-name="Path 39222" d="M862.338,1280.019h.366l-.389,1.691h-.366Zm.146-.647h.372l-.091.4h-.373Z" transform="translate(-851.964 -1279.315)" fill="#231f20"/>
    <path id="Path_39223" data-name="Path 39223" d="M863.353,1281.58c0-.491.261-1.2.856-1.2a6.672,6.672,0,0,1,.778.1l-.253,1.1c-.047.214-.091.528-.091.528l-.362.014s.038-.244.051-.308c0,0-.244.339-.521.339C863.485,1282.145,863.353,1281.912,863.353,1281.58Zm.372,0c0,.158.047.25.207.25s.463-.362.463-.362l.173-.728a2.279,2.279,0,0,0-.348-.051C863.891,1280.69,863.725,1281.222,863.725,1281.58Z" transform="translate(-852.519 -1279.712)" fill="#231f20"/>
  </g>
</svg>
